%TF.GenerationSoftware,KiCad,Pcbnew,(6.0.10)*%
%TF.CreationDate,2023-03-03T00:05:23+07:00*%
%TF.ProjectId,wt32_sc01_ext,77743332-5f73-4633-9031-5f6578742e6b,rev?*%
%TF.SameCoordinates,Original*%
%TF.FileFunction,Legend,Top*%
%TF.FilePolarity,Positive*%
%FSLAX46Y46*%
G04 Gerber Fmt 4.6, Leading zero omitted, Abs format (unit mm)*
G04 Created by KiCad (PCBNEW (6.0.10)) date 2023-03-03 00:05:23*
%MOMM*%
%LPD*%
G01*
G04 APERTURE LIST*
G04 Aperture macros list*
%AMRoundRect*
0 Rectangle with rounded corners*
0 $1 Rounding radius*
0 $2 $3 $4 $5 $6 $7 $8 $9 X,Y pos of 4 corners*
0 Add a 4 corners polygon primitive as box body*
4,1,4,$2,$3,$4,$5,$6,$7,$8,$9,$2,$3,0*
0 Add four circle primitives for the rounded corners*
1,1,$1+$1,$2,$3*
1,1,$1+$1,$4,$5*
1,1,$1+$1,$6,$7*
1,1,$1+$1,$8,$9*
0 Add four rect primitives between the rounded corners*
20,1,$1+$1,$2,$3,$4,$5,0*
20,1,$1+$1,$4,$5,$6,$7,0*
20,1,$1+$1,$6,$7,$8,$9,0*
20,1,$1+$1,$8,$9,$2,$3,0*%
G04 Aperture macros list end*
%ADD10C,0.152400*%
%ADD11C,0.500000*%
%ADD12C,0.200000*%
%ADD13C,0.120000*%
%ADD14C,0.059995*%
%ADD15C,0.254001*%
%ADD16C,0.300000*%
%ADD17C,0.151994*%
%ADD18C,0.250000*%
%ADD19RoundRect,0.200000X-0.275000X0.200000X-0.275000X-0.200000X0.275000X-0.200000X0.275000X0.200000X0*%
%ADD20RoundRect,0.225000X0.250000X-0.225000X0.250000X0.225000X-0.250000X0.225000X-0.250000X-0.225000X0*%
%ADD21R,1.250013X0.700000*%
%ADD22C,1.800000*%
%ADD23RoundRect,0.218750X0.256250X-0.218750X0.256250X0.218750X-0.256250X0.218750X-0.256250X-0.218750X0*%
%ADD24RoundRect,0.200000X0.275000X-0.200000X0.275000X0.200000X-0.275000X0.200000X-0.275000X-0.200000X0*%
%ADD25R,0.600000X1.200000*%
%ADD26R,3.300000X2.400000*%
%ADD27RoundRect,0.200000X0.200000X0.275000X-0.200000X0.275000X-0.200000X-0.275000X0.200000X-0.275000X0*%
%ADD28RoundRect,0.250000X-0.625000X0.350000X-0.625000X-0.350000X0.625000X-0.350000X0.625000X0.350000X0*%
%ADD29O,1.750000X1.200000*%
%ADD30O,0.600000X1.800000*%
%ADD31R,2.289992X2.289992*%
%ADD32C,0.750013*%
%ADD33O,2.000000X1.200000*%
%ADD34O,1.800000X1.200000*%
%ADD35R,1.300000X0.300000*%
%ADD36RoundRect,0.225000X-0.250000X0.225000X-0.250000X-0.225000X0.250000X-0.225000X0.250000X0.225000X0*%
%ADD37C,3.200000*%
%ADD38C,1.152000*%
%ADD39R,2.500000X2.000000*%
%ADD40C,1.524003*%
%ADD41O,2.200000X1.400000*%
%ADD42R,2.500000X1.800000*%
%ADD43RoundRect,0.250000X-0.350000X-0.625000X0.350000X-0.625000X0.350000X0.625000X-0.350000X0.625000X0*%
%ADD44O,1.200000X1.750000*%
%ADD45R,1.350000X1.350000*%
%ADD46O,1.350000X1.350000*%
%ADD47R,3.500000X3.500000*%
%ADD48C,3.500000*%
%ADD49R,1.607493X2.375997*%
%ADD50R,1.000000X0.800000*%
%ADD51R,1.000000X0.550013*%
%ADD52R,2.375997X1.607493*%
%ADD53R,0.250013X0.450013*%
%ADD54R,0.450013X0.250013*%
%ADD55O,0.400000X1.500000*%
%ADD56RoundRect,0.250000X-0.550000X1.500000X-0.550000X-1.500000X0.550000X-1.500000X0.550000X1.500000X0*%
%ADD57RoundRect,0.225000X-0.225000X-0.250000X0.225000X-0.250000X0.225000X0.250000X-0.225000X0.250000X0*%
%ADD58RoundRect,0.225000X0.225000X0.250000X-0.225000X0.250000X-0.225000X-0.250000X0.225000X-0.250000X0*%
G04 APERTURE END LIST*
D10*
X60569290Y11928620D02*
X55569290Y11928620D01*
D11*
X79769290Y53583620D02*
X79769290Y49773620D01*
X82309290Y51678620D02*
G75*
G03*
X82309290Y51678620I-2540000J0D01*
G01*
D10*
X65569290Y11928620D02*
X65569290Y8428620D01*
D11*
X13094290Y51678620D02*
G75*
G03*
X13094290Y51678620I-2540000J0D01*
G01*
X77864290Y51678620D02*
X81674290Y51678620D01*
X8649290Y51678620D02*
X12459290Y51678620D01*
D10*
X65569290Y8428620D02*
X60569290Y8428620D01*
X60569290Y11928620D02*
X65569290Y11928620D01*
D12*
X8687385Y19976240D02*
X8687385Y20976240D01*
X9354051Y20976240D02*
X9544528Y20976240D01*
X9639766Y20928620D01*
X9735004Y20833382D01*
X9782623Y20642906D01*
X9782623Y20309573D01*
X9735004Y20119097D01*
X9639766Y20023859D01*
X9544528Y19976240D01*
X9354051Y19976240D01*
X9258813Y20023859D01*
X9163575Y20119097D01*
X9115956Y20309573D01*
X9115956Y20642906D01*
X9163575Y20833382D01*
X9258813Y20928620D01*
X9354051Y20976240D01*
X10115956Y20976240D02*
X10735004Y20976240D01*
X10401670Y20595287D01*
X10544528Y20595287D01*
X10639766Y20547668D01*
X10687385Y20500049D01*
X10735004Y20404811D01*
X10735004Y20166716D01*
X10687385Y20071478D01*
X10639766Y20023859D01*
X10544528Y19976240D01*
X10258813Y19976240D01*
X10163575Y20023859D01*
X10115956Y20071478D01*
X11115956Y20881001D02*
X11163575Y20928620D01*
X11258813Y20976240D01*
X11496909Y20976240D01*
X11592147Y20928620D01*
X11639766Y20881001D01*
X11687385Y20785763D01*
X11687385Y20690525D01*
X11639766Y20547668D01*
X11068337Y19976240D01*
X11687385Y19976240D01*
X8687385Y17976240D02*
X8687385Y18976240D01*
X9354051Y18976240D02*
X9544528Y18976240D01*
X9639766Y18928620D01*
X9735004Y18833382D01*
X9782623Y18642906D01*
X9782623Y18309573D01*
X9735004Y18119097D01*
X9639766Y18023859D01*
X9544528Y17976240D01*
X9354051Y17976240D01*
X9258813Y18023859D01*
X9163575Y18119097D01*
X9115956Y18309573D01*
X9115956Y18642906D01*
X9163575Y18833382D01*
X9258813Y18928620D01*
X9354051Y18976240D01*
X10687385Y18976240D02*
X10211194Y18976240D01*
X10163575Y18500049D01*
X10211194Y18547668D01*
X10306432Y18595287D01*
X10544528Y18595287D01*
X10639766Y18547668D01*
X10687385Y18500049D01*
X10735004Y18404811D01*
X10735004Y18166716D01*
X10687385Y18071478D01*
X10639766Y18023859D01*
X10544528Y17976240D01*
X10306432Y17976240D01*
X10211194Y18023859D01*
X10163575Y18071478D01*
X18058051Y8570097D02*
X18105670Y8712954D01*
X18105670Y8951049D01*
X18058051Y9046287D01*
X18010432Y9093906D01*
X17915194Y9141525D01*
X17819956Y9141525D01*
X17724718Y9093906D01*
X17677099Y9046287D01*
X17629480Y8951049D01*
X17581861Y8760573D01*
X17534242Y8665335D01*
X17486623Y8617716D01*
X17391385Y8570097D01*
X17296147Y8570097D01*
X17200909Y8617716D01*
X17153290Y8665335D01*
X17105670Y8760573D01*
X17105670Y8998668D01*
X17153290Y9141525D01*
X18010432Y10141525D02*
X18058051Y10093906D01*
X18105670Y9951049D01*
X18105670Y9855811D01*
X18058051Y9712954D01*
X17962813Y9617716D01*
X17867575Y9570097D01*
X17677099Y9522478D01*
X17534242Y9522478D01*
X17343766Y9570097D01*
X17248528Y9617716D01*
X17153290Y9712954D01*
X17105670Y9855811D01*
X17105670Y9951049D01*
X17153290Y10093906D01*
X17200909Y10141525D01*
X18105670Y11046287D02*
X18105670Y10570097D01*
X17105670Y10570097D01*
X72653290Y9391525D02*
X72605670Y9296287D01*
X72605670Y9153430D01*
X72653290Y9010573D01*
X72748528Y8915335D01*
X72843766Y8867716D01*
X73034242Y8820097D01*
X73177099Y8820097D01*
X73367575Y8867716D01*
X73462813Y8915335D01*
X73558051Y9010573D01*
X73605670Y9153430D01*
X73605670Y9248668D01*
X73558051Y9391525D01*
X73510432Y9439144D01*
X73177099Y9439144D01*
X73177099Y9248668D01*
X73605670Y9867716D02*
X72605670Y9867716D01*
X73605670Y10439144D01*
X72605670Y10439144D01*
X73605670Y10915335D02*
X72605670Y10915335D01*
X72605670Y11153430D01*
X72653290Y11296287D01*
X72748528Y11391525D01*
X72843766Y11439144D01*
X73034242Y11486763D01*
X73177099Y11486763D01*
X73367575Y11439144D01*
X73462813Y11391525D01*
X73558051Y11296287D01*
X73605670Y11153430D01*
X73605670Y10915335D01*
X84521670Y41226240D02*
X84521670Y41416716D01*
X84569290Y41511954D01*
X84664528Y41607192D01*
X84855004Y41654811D01*
X85188337Y41654811D01*
X85378813Y41607192D01*
X85474051Y41511954D01*
X85521670Y41416716D01*
X85521670Y41226240D01*
X85474051Y41131001D01*
X85378813Y41035763D01*
X85188337Y40988144D01*
X84855004Y40988144D01*
X84664528Y41035763D01*
X84569290Y41131001D01*
X84521670Y41226240D01*
X84997861Y42416716D02*
X84997861Y42083382D01*
X85521670Y42083382D02*
X84521670Y42083382D01*
X84521670Y42559573D01*
X84997861Y43273859D02*
X84997861Y42940525D01*
X85521670Y42940525D02*
X84521670Y42940525D01*
X84521670Y43416716D01*
X13105670Y8522478D02*
X13105670Y9141525D01*
X13486623Y8808192D01*
X13486623Y8951049D01*
X13534242Y9046287D01*
X13581861Y9093906D01*
X13677099Y9141525D01*
X13915194Y9141525D01*
X14010432Y9093906D01*
X14058051Y9046287D01*
X14105670Y8951049D01*
X14105670Y8665335D01*
X14058051Y8570097D01*
X14010432Y8522478D01*
X13105670Y9427240D02*
X14105670Y9760573D01*
X13105670Y10093906D01*
X13105670Y10332001D02*
X13105670Y10951049D01*
X13486623Y10617716D01*
X13486623Y10760573D01*
X13534242Y10855811D01*
X13581861Y10903430D01*
X13677099Y10951049D01*
X13915194Y10951049D01*
X14010432Y10903430D01*
X14058051Y10855811D01*
X14105670Y10760573D01*
X14105670Y10474859D01*
X14058051Y10379620D01*
X14010432Y10332001D01*
X8687385Y13976240D02*
X8687385Y14976240D01*
X9354051Y14976240D02*
X9544528Y14976240D01*
X9639766Y14928620D01*
X9735004Y14833382D01*
X9782623Y14642906D01*
X9782623Y14309573D01*
X9735004Y14119097D01*
X9639766Y14023859D01*
X9544528Y13976240D01*
X9354051Y13976240D01*
X9258813Y14023859D01*
X9163575Y14119097D01*
X9115956Y14309573D01*
X9115956Y14642906D01*
X9163575Y14833382D01*
X9258813Y14928620D01*
X9354051Y14976240D01*
X10115956Y14976240D02*
X10735004Y14976240D01*
X10401670Y14595287D01*
X10544528Y14595287D01*
X10639766Y14547668D01*
X10687385Y14500049D01*
X10735004Y14404811D01*
X10735004Y14166716D01*
X10687385Y14071478D01*
X10639766Y14023859D01*
X10544528Y13976240D01*
X10258813Y13976240D01*
X10163575Y14023859D01*
X10115956Y14071478D01*
X11592147Y14642906D02*
X11592147Y13976240D01*
X11354051Y15023859D02*
X11115956Y14309573D01*
X11735004Y14309573D01*
X9211194Y22928620D02*
X9115956Y22976240D01*
X8973099Y22976240D01*
X8830242Y22928620D01*
X8735004Y22833382D01*
X8687385Y22738144D01*
X8639766Y22547668D01*
X8639766Y22404811D01*
X8687385Y22214335D01*
X8735004Y22119097D01*
X8830242Y22023859D01*
X8973099Y21976240D01*
X9068337Y21976240D01*
X9211194Y22023859D01*
X9258813Y22071478D01*
X9258813Y22404811D01*
X9068337Y22404811D01*
X9687385Y21976240D02*
X9687385Y22976240D01*
X10258813Y21976240D01*
X10258813Y22976240D01*
X10735004Y21976240D02*
X10735004Y22976240D01*
X10973099Y22976240D01*
X11115956Y22928620D01*
X11211194Y22833382D01*
X11258813Y22738144D01*
X11306432Y22547668D01*
X11306432Y22404811D01*
X11258813Y22214335D01*
X11211194Y22119097D01*
X11115956Y22023859D01*
X10973099Y21976240D01*
X10735004Y21976240D01*
X84521670Y45559573D02*
X84521670Y45750049D01*
X84569290Y45845287D01*
X84664528Y45940525D01*
X84855004Y45988144D01*
X85188337Y45988144D01*
X85378813Y45940525D01*
X85474051Y45845287D01*
X85521670Y45750049D01*
X85521670Y45559573D01*
X85474051Y45464335D01*
X85378813Y45369097D01*
X85188337Y45321478D01*
X84855004Y45321478D01*
X84664528Y45369097D01*
X84569290Y45464335D01*
X84521670Y45559573D01*
X85521670Y46416716D02*
X84521670Y46416716D01*
X85521670Y46988144D01*
X84521670Y46988144D01*
X89760432Y27785335D02*
X89808051Y27737716D01*
X89855670Y27594859D01*
X89855670Y27499620D01*
X89808051Y27356763D01*
X89712813Y27261525D01*
X89617575Y27213906D01*
X89427099Y27166287D01*
X89284242Y27166287D01*
X89093766Y27213906D01*
X88998528Y27261525D01*
X88903290Y27356763D01*
X88855670Y27499620D01*
X88855670Y27594859D01*
X88903290Y27737716D01*
X88950909Y27785335D01*
X89855670Y28213906D02*
X88855670Y28213906D01*
X89331861Y28213906D02*
X89331861Y28785335D01*
X89855670Y28785335D02*
X88855670Y28785335D01*
X89855670Y29832954D02*
X89379480Y29499620D01*
X89855670Y29261525D02*
X88855670Y29261525D01*
X88855670Y29642478D01*
X88903290Y29737716D01*
X88950909Y29785335D01*
X89046147Y29832954D01*
X89189004Y29832954D01*
X89284242Y29785335D01*
X89331861Y29737716D01*
X89379480Y29642478D01*
X89379480Y29261525D01*
X88903290Y30785335D02*
X88855670Y30690097D01*
X88855670Y30547240D01*
X88903290Y30404382D01*
X88998528Y30309144D01*
X89093766Y30261525D01*
X89284242Y30213906D01*
X89427099Y30213906D01*
X89617575Y30261525D01*
X89712813Y30309144D01*
X89808051Y30404382D01*
X89855670Y30547240D01*
X89855670Y30642478D01*
X89808051Y30785335D01*
X89760432Y30832954D01*
X89427099Y30832954D01*
X89427099Y30642478D01*
X8687385Y11976240D02*
X8687385Y12976240D01*
X9354051Y12976240D02*
X9544528Y12976240D01*
X9639766Y12928620D01*
X9735004Y12833382D01*
X9782623Y12642906D01*
X9782623Y12309573D01*
X9735004Y12119097D01*
X9639766Y12023859D01*
X9544528Y11976240D01*
X9354051Y11976240D01*
X9258813Y12023859D01*
X9163575Y12119097D01*
X9115956Y12309573D01*
X9115956Y12642906D01*
X9163575Y12833382D01*
X9258813Y12928620D01*
X9354051Y12976240D01*
X10163575Y12881001D02*
X10211194Y12928620D01*
X10306432Y12976240D01*
X10544528Y12976240D01*
X10639766Y12928620D01*
X10687385Y12881001D01*
X10735004Y12785763D01*
X10735004Y12690525D01*
X10687385Y12547668D01*
X10115956Y11976240D01*
X10735004Y11976240D01*
X77081861Y9201049D02*
X77129480Y9343906D01*
X77177099Y9391525D01*
X77272337Y9439144D01*
X77415194Y9439144D01*
X77510432Y9391525D01*
X77558051Y9343906D01*
X77605670Y9248668D01*
X77605670Y8867716D01*
X76605670Y8867716D01*
X76605670Y9201049D01*
X76653290Y9296287D01*
X76700909Y9343906D01*
X76796147Y9391525D01*
X76891385Y9391525D01*
X76986623Y9343906D01*
X77034242Y9296287D01*
X77081861Y9201049D01*
X77081861Y8867716D01*
X77319956Y9820097D02*
X77319956Y10296287D01*
X77605670Y9724859D02*
X76605670Y10058192D01*
X77605670Y10391525D01*
X76605670Y10582001D02*
X76605670Y11153430D01*
X77605670Y10867716D02*
X76605670Y10867716D01*
X77224718Y11486763D02*
X77224718Y12248668D01*
X77605670Y11867716D02*
X76843766Y11867716D01*
X8687385Y15976240D02*
X8687385Y16976240D01*
X9354051Y16976240D02*
X9544528Y16976240D01*
X9639766Y16928620D01*
X9735004Y16833382D01*
X9782623Y16642906D01*
X9782623Y16309573D01*
X9735004Y16119097D01*
X9639766Y16023859D01*
X9544528Y15976240D01*
X9354051Y15976240D01*
X9258813Y16023859D01*
X9163575Y16119097D01*
X9115956Y16309573D01*
X9115956Y16642906D01*
X9163575Y16833382D01*
X9258813Y16928620D01*
X9354051Y16976240D01*
X10735004Y15976240D02*
X10163575Y15976240D01*
X10449290Y15976240D02*
X10449290Y16976240D01*
X10354051Y16833382D01*
X10258813Y16738144D01*
X10163575Y16690525D01*
X11115956Y16881001D02*
X11163575Y16928620D01*
X11258813Y16976240D01*
X11496909Y16976240D01*
X11592147Y16928620D01*
X11639766Y16881001D01*
X11687385Y16785763D01*
X11687385Y16690525D01*
X11639766Y16547668D01*
X11068337Y15976240D01*
X11687385Y15976240D01*
X70605670Y9343906D02*
X70605670Y8867716D01*
X71081861Y8820097D01*
X71034242Y8867716D01*
X70986623Y8962954D01*
X70986623Y9201049D01*
X71034242Y9296287D01*
X71081861Y9343906D01*
X71177099Y9391525D01*
X71415194Y9391525D01*
X71510432Y9343906D01*
X71558051Y9296287D01*
X71605670Y9201049D01*
X71605670Y8962954D01*
X71558051Y8867716D01*
X71510432Y8820097D01*
X70605670Y9677240D02*
X71605670Y10010573D01*
X70605670Y10343906D01*
X70605670Y10867716D02*
X70605670Y10962954D01*
X70653290Y11058192D01*
X70700909Y11105811D01*
X70796147Y11153430D01*
X70986623Y11201049D01*
X71224718Y11201049D01*
X71415194Y11153430D01*
X71510432Y11105811D01*
X71558051Y11058192D01*
X71605670Y10962954D01*
X71605670Y10867716D01*
X71558051Y10772478D01*
X71510432Y10724859D01*
X71415194Y10677240D01*
X71224718Y10629620D01*
X70986623Y10629620D01*
X70796147Y10677240D01*
X70700909Y10724859D01*
X70653290Y10772478D01*
X70605670Y10867716D01*
D10*
X40314928Y38623725D02*
X40314928Y38043154D01*
X40276223Y37927040D01*
X40198813Y37849630D01*
X40082699Y37810925D01*
X40005290Y37810925D01*
X41089023Y37810925D02*
X40701975Y37810925D01*
X40701975Y38623725D01*
X41824413Y37888335D02*
X41785709Y37849630D01*
X41669594Y37810925D01*
X41592185Y37810925D01*
X41476070Y37849630D01*
X41398661Y37927040D01*
X41359956Y38004449D01*
X41321251Y38159268D01*
X41321251Y38275382D01*
X41359956Y38430201D01*
X41398661Y38507611D01*
X41476070Y38585020D01*
X41592185Y38623725D01*
X41669594Y38623725D01*
X41785709Y38585020D01*
X41824413Y38546316D01*
X42404985Y38623725D02*
X42404985Y38043154D01*
X42366280Y37927040D01*
X42288870Y37849630D01*
X42172756Y37810925D01*
X42095347Y37810925D01*
X43179080Y37810925D02*
X42792032Y37810925D01*
X42792032Y38623725D01*
X43914470Y37888335D02*
X43875766Y37849630D01*
X43759651Y37810925D01*
X43682242Y37810925D01*
X43566128Y37849630D01*
X43488718Y37927040D01*
X43450013Y38004449D01*
X43411309Y38159268D01*
X43411309Y38275382D01*
X43450013Y38430201D01*
X43488718Y38507611D01*
X43566128Y38585020D01*
X43682242Y38623725D01*
X43759651Y38623725D01*
X43875766Y38585020D01*
X43914470Y38546316D01*
X44495042Y38623725D02*
X44495042Y38043154D01*
X44456337Y37927040D01*
X44378928Y37849630D01*
X44262813Y37810925D01*
X44185404Y37810925D01*
X45269137Y37810925D02*
X44882090Y37810925D01*
X44882090Y38623725D01*
X46004528Y37888335D02*
X45965823Y37849630D01*
X45849709Y37810925D01*
X45772299Y37810925D01*
X45656185Y37849630D01*
X45578775Y37927040D01*
X45540070Y38004449D01*
X45501366Y38159268D01*
X45501366Y38275382D01*
X45540070Y38430201D01*
X45578775Y38507611D01*
X45656185Y38585020D01*
X45772299Y38623725D01*
X45849709Y38623725D01*
X45965823Y38585020D01*
X46004528Y38546316D01*
X46585099Y38623725D02*
X46585099Y38043154D01*
X46546394Y37927040D01*
X46468985Y37849630D01*
X46352870Y37810925D01*
X46275461Y37810925D01*
X47359194Y37810925D02*
X46972147Y37810925D01*
X46972147Y38623725D01*
X48094585Y37888335D02*
X48055880Y37849630D01*
X47939766Y37810925D01*
X47862356Y37810925D01*
X47746242Y37849630D01*
X47668832Y37927040D01*
X47630128Y38004449D01*
X47591423Y38159268D01*
X47591423Y38275382D01*
X47630128Y38430201D01*
X47668832Y38507611D01*
X47746242Y38585020D01*
X47862356Y38623725D01*
X47939766Y38623725D01*
X48055880Y38585020D01*
X48094585Y38546316D01*
D12*
X75081861Y9201049D02*
X75129480Y9343906D01*
X75177099Y9391525D01*
X75272337Y9439144D01*
X75415194Y9439144D01*
X75510432Y9391525D01*
X75558051Y9343906D01*
X75605670Y9248668D01*
X75605670Y8867716D01*
X74605670Y8867716D01*
X74605670Y9201049D01*
X74653290Y9296287D01*
X74700909Y9343906D01*
X74796147Y9391525D01*
X74891385Y9391525D01*
X74986623Y9343906D01*
X75034242Y9296287D01*
X75081861Y9201049D01*
X75081861Y8867716D01*
X75319956Y9820097D02*
X75319956Y10296287D01*
X75605670Y9724859D02*
X74605670Y10058192D01*
X75605670Y10391525D01*
X74605670Y10582001D02*
X74605670Y11153430D01*
X75605670Y10867716D02*
X74605670Y10867716D01*
X75224718Y11486763D02*
X75224718Y12248668D01*
X89855670Y22213906D02*
X89855670Y21737716D01*
X88855670Y21737716D01*
X88855670Y22737716D02*
X88855670Y22928192D01*
X88903290Y23023430D01*
X88998528Y23118668D01*
X89189004Y23166287D01*
X89522337Y23166287D01*
X89712813Y23118668D01*
X89808051Y23023430D01*
X89855670Y22928192D01*
X89855670Y22737716D01*
X89808051Y22642478D01*
X89712813Y22547240D01*
X89522337Y22499620D01*
X89189004Y22499620D01*
X88998528Y22547240D01*
X88903290Y22642478D01*
X88855670Y22737716D01*
X88855670Y23499620D02*
X89855670Y23737716D01*
X89141385Y23928192D01*
X89855670Y24118668D01*
X88855670Y24356763D01*
X20058051Y8570097D02*
X20105670Y8712954D01*
X20105670Y8951049D01*
X20058051Y9046287D01*
X20010432Y9093906D01*
X19915194Y9141525D01*
X19819956Y9141525D01*
X19724718Y9093906D01*
X19677099Y9046287D01*
X19629480Y8951049D01*
X19581861Y8760573D01*
X19534242Y8665335D01*
X19486623Y8617716D01*
X19391385Y8570097D01*
X19296147Y8570097D01*
X19200909Y8617716D01*
X19153290Y8665335D01*
X19105670Y8760573D01*
X19105670Y8998668D01*
X19153290Y9141525D01*
X20105670Y9570097D02*
X19105670Y9570097D01*
X19105670Y9808192D01*
X19153290Y9951049D01*
X19248528Y10046287D01*
X19343766Y10093906D01*
X19534242Y10141525D01*
X19677099Y10141525D01*
X19867575Y10093906D01*
X19962813Y10046287D01*
X20058051Y9951049D01*
X20105670Y9808192D01*
X20105670Y9570097D01*
X19819956Y10522478D02*
X19819956Y10998668D01*
X20105670Y10427240D02*
X19105670Y10760573D01*
X20105670Y11093906D01*
X15153290Y9141525D02*
X15105670Y9046287D01*
X15105670Y8903430D01*
X15153290Y8760573D01*
X15248528Y8665335D01*
X15343766Y8617716D01*
X15534242Y8570097D01*
X15677099Y8570097D01*
X15867575Y8617716D01*
X15962813Y8665335D01*
X16058051Y8760573D01*
X16105670Y8903430D01*
X16105670Y8998668D01*
X16058051Y9141525D01*
X16010432Y9189144D01*
X15677099Y9189144D01*
X15677099Y8998668D01*
X16105670Y9617716D02*
X15105670Y9617716D01*
X16105670Y10189144D01*
X15105670Y10189144D01*
X16105670Y10665335D02*
X15105670Y10665335D01*
X15105670Y10903430D01*
X15153290Y11046287D01*
X15248528Y11141525D01*
X15343766Y11189144D01*
X15534242Y11236763D01*
X15677099Y11236763D01*
X15867575Y11189144D01*
X15962813Y11141525D01*
X16058051Y11046287D01*
X16105670Y10903430D01*
X16105670Y10665335D01*
X8592147Y24976240D02*
X9211194Y24976240D01*
X8877861Y24595287D01*
X9020718Y24595287D01*
X9115956Y24547668D01*
X9163575Y24500049D01*
X9211194Y24404811D01*
X9211194Y24166716D01*
X9163575Y24071478D01*
X9115956Y24023859D01*
X9020718Y23976240D01*
X8735004Y23976240D01*
X8639766Y24023859D01*
X8592147Y24071478D01*
X9496909Y24976240D02*
X9830242Y23976240D01*
X10163575Y24976240D01*
X10401670Y24976240D02*
X11020718Y24976240D01*
X10687385Y24595287D01*
X10830242Y24595287D01*
X10925480Y24547668D01*
X10973099Y24500049D01*
X11020718Y24404811D01*
X11020718Y24166716D01*
X10973099Y24071478D01*
X10925480Y24023859D01*
X10830242Y23976240D01*
X10544528Y23976240D01*
X10449290Y24023859D01*
X10401670Y24071478D01*
X89331861Y33809144D02*
X89331861Y33475811D01*
X89855670Y33475811D02*
X88855670Y33475811D01*
X88855670Y33952001D01*
X88855670Y34332954D02*
X89665194Y34332954D01*
X89760432Y34380573D01*
X89808051Y34428192D01*
X89855670Y34523430D01*
X89855670Y34713906D01*
X89808051Y34809144D01*
X89760432Y34856763D01*
X89665194Y34904382D01*
X88855670Y34904382D01*
X89855670Y35856763D02*
X89855670Y35380573D01*
X88855670Y35380573D01*
X89855670Y36666287D02*
X89855670Y36190097D01*
X88855670Y36190097D01*
X8687385Y9976240D02*
X8687385Y10976240D01*
X9354051Y10976240D02*
X9544528Y10976240D01*
X9639766Y10928620D01*
X9735004Y10833382D01*
X9782623Y10642906D01*
X9782623Y10309573D01*
X9735004Y10119097D01*
X9639766Y10023859D01*
X9544528Y9976240D01*
X9354051Y9976240D01*
X9258813Y10023859D01*
X9163575Y10119097D01*
X9115956Y10309573D01*
X9115956Y10642906D01*
X9163575Y10833382D01*
X9258813Y10928620D01*
X9354051Y10976240D01*
X10639766Y10642906D02*
X10639766Y9976240D01*
X10401670Y11023859D02*
X10163575Y10309573D01*
X10782623Y10309573D01*
%TO.C,R17*%
X32723670Y10024763D02*
X32247480Y9691430D01*
X32723670Y9453335D02*
X31723670Y9453335D01*
X31723670Y9834287D01*
X31771290Y9929525D01*
X31818909Y9977144D01*
X31914147Y10024763D01*
X32057004Y10024763D01*
X32152242Y9977144D01*
X32199861Y9929525D01*
X32247480Y9834287D01*
X32247480Y9453335D01*
X32723670Y10977144D02*
X32723670Y10405716D01*
X32723670Y10691430D02*
X31723670Y10691430D01*
X31866528Y10596192D01*
X31961766Y10500954D01*
X32009385Y10405716D01*
X31723670Y11310478D02*
X31723670Y11977144D01*
X32723670Y11548573D01*
%TO.C,R12*%
X45155960Y15231763D02*
X44679770Y14898430D01*
X45155960Y14660335D02*
X44155960Y14660335D01*
X44155960Y15041287D01*
X44203580Y15136525D01*
X44251199Y15184144D01*
X44346437Y15231763D01*
X44489294Y15231763D01*
X44584532Y15184144D01*
X44632151Y15136525D01*
X44679770Y15041287D01*
X44679770Y14660335D01*
X45155960Y16184144D02*
X45155960Y15612716D01*
X45155960Y15898430D02*
X44155960Y15898430D01*
X44298818Y15803192D01*
X44394056Y15707954D01*
X44441675Y15612716D01*
X44251199Y16565097D02*
X44203580Y16612716D01*
X44155960Y16707954D01*
X44155960Y16946049D01*
X44203580Y17041287D01*
X44251199Y17088906D01*
X44346437Y17136525D01*
X44441675Y17136525D01*
X44584532Y17088906D01*
X45155960Y16517478D01*
X45155960Y17136525D01*
%TO.C,C7*%
X64926432Y9511954D02*
X64974051Y9464335D01*
X65021670Y9321478D01*
X65021670Y9226240D01*
X64974051Y9083382D01*
X64878813Y8988144D01*
X64783575Y8940525D01*
X64593099Y8892906D01*
X64450242Y8892906D01*
X64259766Y8940525D01*
X64164528Y8988144D01*
X64069290Y9083382D01*
X64021670Y9226240D01*
X64021670Y9321478D01*
X64069290Y9464335D01*
X64116909Y9511954D01*
X64021670Y9845287D02*
X64021670Y10511954D01*
X65021670Y10083382D01*
%TO.C,R13*%
X62021670Y9535763D02*
X61545480Y9202430D01*
X62021670Y8964335D02*
X61021670Y8964335D01*
X61021670Y9345287D01*
X61069290Y9440525D01*
X61116909Y9488144D01*
X61212147Y9535763D01*
X61355004Y9535763D01*
X61450242Y9488144D01*
X61497861Y9440525D01*
X61545480Y9345287D01*
X61545480Y8964335D01*
X62021670Y10488144D02*
X62021670Y9916716D01*
X62021670Y10202430D02*
X61021670Y10202430D01*
X61164528Y10107192D01*
X61259766Y10011954D01*
X61307385Y9916716D01*
X61021670Y10821478D02*
X61021670Y11440525D01*
X61402623Y11107192D01*
X61402623Y11250049D01*
X61450242Y11345287D01*
X61497861Y11392906D01*
X61593099Y11440525D01*
X61831194Y11440525D01*
X61926432Y11392906D01*
X61974051Y11345287D01*
X62021670Y11250049D01*
X62021670Y10964335D01*
X61974051Y10869097D01*
X61926432Y10821478D01*
%TO.C,Q1*%
X30779051Y19391001D02*
X30683813Y19438620D01*
X30588575Y19533859D01*
X30445718Y19676716D01*
X30350480Y19724335D01*
X30255242Y19724335D01*
X30302861Y19486240D02*
X30207623Y19533859D01*
X30112385Y19629097D01*
X30064766Y19819573D01*
X30064766Y20152906D01*
X30112385Y20343382D01*
X30207623Y20438620D01*
X30302861Y20486240D01*
X30493337Y20486240D01*
X30588575Y20438620D01*
X30683813Y20343382D01*
X30731432Y20152906D01*
X30731432Y19819573D01*
X30683813Y19629097D01*
X30588575Y19533859D01*
X30493337Y19486240D01*
X30302861Y19486240D01*
X31683813Y19486240D02*
X31112385Y19486240D01*
X31398099Y19486240D02*
X31398099Y20486240D01*
X31302861Y20343382D01*
X31207623Y20248144D01*
X31112385Y20200525D01*
%TO.C,R11*%
X46905960Y15231763D02*
X46429770Y14898430D01*
X46905960Y14660335D02*
X45905960Y14660335D01*
X45905960Y15041287D01*
X45953580Y15136525D01*
X46001199Y15184144D01*
X46096437Y15231763D01*
X46239294Y15231763D01*
X46334532Y15184144D01*
X46382151Y15136525D01*
X46429770Y15041287D01*
X46429770Y14660335D01*
X46905960Y16184144D02*
X46905960Y15612716D01*
X46905960Y15898430D02*
X45905960Y15898430D01*
X46048818Y15803192D01*
X46144056Y15707954D01*
X46191675Y15612716D01*
X46905960Y17136525D02*
X46905960Y16565097D01*
X46905960Y16850811D02*
X45905960Y16850811D01*
X46048818Y16755573D01*
X46144056Y16660335D01*
X46191675Y16565097D01*
%TO.C,BZ1*%
X24278337Y16073049D02*
X24421194Y16025430D01*
X24468813Y15977811D01*
X24516432Y15882573D01*
X24516432Y15739716D01*
X24468813Y15644478D01*
X24421194Y15596859D01*
X24325956Y15549240D01*
X23945004Y15549240D01*
X23945004Y16549240D01*
X24278337Y16549240D01*
X24373575Y16501620D01*
X24421194Y16454001D01*
X24468813Y16358763D01*
X24468813Y16263525D01*
X24421194Y16168287D01*
X24373575Y16120668D01*
X24278337Y16073049D01*
X23945004Y16073049D01*
X24849766Y16549240D02*
X25516432Y16549240D01*
X24849766Y15549240D01*
X25516432Y15549240D01*
X26421194Y15549240D02*
X25849766Y15549240D01*
X26135480Y15549240D02*
X26135480Y16549240D01*
X26040242Y16406382D01*
X25945004Y16311144D01*
X25849766Y16263525D01*
%TO.C,D2*%
X87333670Y31011525D02*
X86333670Y31011525D01*
X86333670Y31249620D01*
X86381290Y31392478D01*
X86476528Y31487716D01*
X86571766Y31535335D01*
X86762242Y31582954D01*
X86905099Y31582954D01*
X87095575Y31535335D01*
X87190813Y31487716D01*
X87286051Y31392478D01*
X87333670Y31249620D01*
X87333670Y31011525D01*
X86428909Y31963906D02*
X86381290Y32011525D01*
X86333670Y32106763D01*
X86333670Y32344859D01*
X86381290Y32440097D01*
X86428909Y32487716D01*
X86524147Y32535335D01*
X86619385Y32535335D01*
X86762242Y32487716D01*
X87333670Y31916287D01*
X87333670Y32535335D01*
%TO.C,R15*%
X85555670Y25518763D02*
X85079480Y25185430D01*
X85555670Y24947335D02*
X84555670Y24947335D01*
X84555670Y25328287D01*
X84603290Y25423525D01*
X84650909Y25471144D01*
X84746147Y25518763D01*
X84889004Y25518763D01*
X84984242Y25471144D01*
X85031861Y25423525D01*
X85079480Y25328287D01*
X85079480Y24947335D01*
X85555670Y26471144D02*
X85555670Y25899716D01*
X85555670Y26185430D02*
X84555670Y26185430D01*
X84698528Y26090192D01*
X84793766Y25994954D01*
X84841385Y25899716D01*
X84555670Y27375906D02*
X84555670Y26899716D01*
X85031861Y26852097D01*
X84984242Y26899716D01*
X84936623Y26994954D01*
X84936623Y27233049D01*
X84984242Y27328287D01*
X85031861Y27375906D01*
X85127099Y27423525D01*
X85365194Y27423525D01*
X85460432Y27375906D01*
X85508051Y27328287D01*
X85555670Y27233049D01*
X85555670Y26994954D01*
X85508051Y26899716D01*
X85460432Y26852097D01*
%TO.C,U1*%
X74422385Y14476240D02*
X74422385Y13666716D01*
X74470004Y13571478D01*
X74517623Y13523859D01*
X74612861Y13476240D01*
X74803337Y13476240D01*
X74898575Y13523859D01*
X74946194Y13571478D01*
X74993813Y13666716D01*
X74993813Y14476240D01*
X75993813Y13476240D02*
X75422385Y13476240D01*
X75708099Y13476240D02*
X75708099Y14476240D01*
X75612861Y14333382D01*
X75517623Y14238144D01*
X75422385Y14190525D01*
%TO.C,R10*%
X35997232Y13034640D02*
X35663899Y13510830D01*
X35425804Y13034640D02*
X35425804Y14034640D01*
X35806756Y14034640D01*
X35901994Y13987020D01*
X35949613Y13939401D01*
X35997232Y13844163D01*
X35997232Y13701306D01*
X35949613Y13606068D01*
X35901994Y13558449D01*
X35806756Y13510830D01*
X35425804Y13510830D01*
X36949613Y13034640D02*
X36378185Y13034640D01*
X36663899Y13034640D02*
X36663899Y14034640D01*
X36568661Y13891782D01*
X36473423Y13796544D01*
X36378185Y13748925D01*
X37568661Y14034640D02*
X37663899Y14034640D01*
X37759137Y13987020D01*
X37806756Y13939401D01*
X37854375Y13844163D01*
X37901994Y13653687D01*
X37901994Y13415592D01*
X37854375Y13225116D01*
X37806756Y13129878D01*
X37759137Y13082259D01*
X37663899Y13034640D01*
X37568661Y13034640D01*
X37473423Y13082259D01*
X37425804Y13129878D01*
X37378185Y13225116D01*
X37330566Y13415592D01*
X37330566Y13653687D01*
X37378185Y13844163D01*
X37425804Y13939401D01*
X37473423Y13987020D01*
X37568661Y14034640D01*
%TO.C,J4*%
X2569956Y28297240D02*
X2569956Y27582954D01*
X2522337Y27440097D01*
X2427099Y27344859D01*
X2284242Y27297240D01*
X2189004Y27297240D01*
X3474718Y27963906D02*
X3474718Y27297240D01*
X3236623Y28344859D02*
X2998528Y27630573D01*
X3617575Y27630573D01*
%TO.C,U5*%
X36568675Y23093240D02*
X36568675Y22283716D01*
X36616294Y22188478D01*
X36663913Y22140859D01*
X36759151Y22093240D01*
X36949627Y22093240D01*
X37044865Y22140859D01*
X37092484Y22188478D01*
X37140103Y22283716D01*
X37140103Y23093240D01*
X38092484Y23093240D02*
X37616294Y23093240D01*
X37568675Y22617049D01*
X37616294Y22664668D01*
X37711532Y22712287D01*
X37949627Y22712287D01*
X38044865Y22664668D01*
X38092484Y22617049D01*
X38140103Y22521811D01*
X38140103Y22283716D01*
X38092484Y22188478D01*
X38044865Y22140859D01*
X37949627Y22093240D01*
X37711532Y22093240D01*
X37616294Y22140859D01*
X37568675Y22188478D01*
%TO.C,CN1*%
X87212813Y7392478D02*
X87165194Y7344859D01*
X87022337Y7297240D01*
X86927099Y7297240D01*
X86784242Y7344859D01*
X86689004Y7440097D01*
X86641385Y7535335D01*
X86593766Y7725811D01*
X86593766Y7868668D01*
X86641385Y8059144D01*
X86689004Y8154382D01*
X86784242Y8249620D01*
X86927099Y8297240D01*
X87022337Y8297240D01*
X87165194Y8249620D01*
X87212813Y8202001D01*
X87641385Y7297240D02*
X87641385Y8297240D01*
X88212813Y7297240D01*
X88212813Y8297240D01*
X89212813Y7297240D02*
X88641385Y7297240D01*
X88927099Y7297240D02*
X88927099Y8297240D01*
X88831861Y8154382D01*
X88736623Y8059144D01*
X88641385Y8011525D01*
%TO.C,C3*%
X57497432Y26585954D02*
X57545051Y26538335D01*
X57592670Y26395478D01*
X57592670Y26300240D01*
X57545051Y26157382D01*
X57449813Y26062144D01*
X57354575Y26014525D01*
X57164099Y25966906D01*
X57021242Y25966906D01*
X56830766Y26014525D01*
X56735528Y26062144D01*
X56640290Y26157382D01*
X56592670Y26300240D01*
X56592670Y26395478D01*
X56640290Y26538335D01*
X56687909Y26585954D01*
X56592670Y26919287D02*
X56592670Y27538335D01*
X56973623Y27205001D01*
X56973623Y27347859D01*
X57021242Y27443097D01*
X57068861Y27490716D01*
X57164099Y27538335D01*
X57402194Y27538335D01*
X57497432Y27490716D01*
X57545051Y27443097D01*
X57592670Y27347859D01*
X57592670Y27062144D01*
X57545051Y26966906D01*
X57497432Y26919287D01*
%TO.C,R1*%
X20277670Y13675954D02*
X19801480Y13342620D01*
X20277670Y13104525D02*
X19277670Y13104525D01*
X19277670Y13485478D01*
X19325290Y13580716D01*
X19372909Y13628335D01*
X19468147Y13675954D01*
X19611004Y13675954D01*
X19706242Y13628335D01*
X19753861Y13580716D01*
X19801480Y13485478D01*
X19801480Y13104525D01*
X20277670Y14628335D02*
X20277670Y14056906D01*
X20277670Y14342620D02*
X19277670Y14342620D01*
X19420528Y14247382D01*
X19515766Y14152144D01*
X19563385Y14056906D01*
%TO.C,L1*%
X31884913Y21976240D02*
X31408722Y21976240D01*
X31408722Y22976240D01*
X32742056Y21976240D02*
X32170627Y21976240D01*
X32456341Y21976240D02*
X32456341Y22976240D01*
X32361103Y22833382D01*
X32265865Y22738144D01*
X32170627Y22690525D01*
%TO.C,R3*%
X85555670Y31665954D02*
X85079480Y31332620D01*
X85555670Y31094525D02*
X84555670Y31094525D01*
X84555670Y31475478D01*
X84603290Y31570716D01*
X84650909Y31618335D01*
X84746147Y31665954D01*
X84889004Y31665954D01*
X84984242Y31618335D01*
X85031861Y31570716D01*
X85079480Y31475478D01*
X85079480Y31094525D01*
X84555670Y31999287D02*
X84555670Y32618335D01*
X84936623Y32285001D01*
X84936623Y32427859D01*
X84984242Y32523097D01*
X85031861Y32570716D01*
X85127099Y32618335D01*
X85365194Y32618335D01*
X85460432Y32570716D01*
X85508051Y32523097D01*
X85555670Y32427859D01*
X85555670Y32142144D01*
X85508051Y32046906D01*
X85460432Y31999287D01*
%TO.C,D1*%
X87333670Y36980525D02*
X86333670Y36980525D01*
X86333670Y37218620D01*
X86381290Y37361478D01*
X86476528Y37456716D01*
X86571766Y37504335D01*
X86762242Y37551954D01*
X86905099Y37551954D01*
X87095575Y37504335D01*
X87190813Y37456716D01*
X87286051Y37361478D01*
X87333670Y37218620D01*
X87333670Y36980525D01*
X87333670Y38504335D02*
X87333670Y37932906D01*
X87333670Y38218620D02*
X86333670Y38218620D01*
X86476528Y38123382D01*
X86571766Y38028144D01*
X86619385Y37932906D01*
%TO.C,SW1*%
X87485956Y49773859D02*
X87628813Y49726240D01*
X87866909Y49726240D01*
X87962147Y49773859D01*
X88009766Y49821478D01*
X88057385Y49916716D01*
X88057385Y50011954D01*
X88009766Y50107192D01*
X87962147Y50154811D01*
X87866909Y50202430D01*
X87676432Y50250049D01*
X87581194Y50297668D01*
X87533575Y50345287D01*
X87485956Y50440525D01*
X87485956Y50535763D01*
X87533575Y50631001D01*
X87581194Y50678620D01*
X87676432Y50726240D01*
X87914528Y50726240D01*
X88057385Y50678620D01*
X88390718Y50726240D02*
X88628813Y49726240D01*
X88819290Y50440525D01*
X89009766Y49726240D01*
X89247861Y50726240D01*
X90152623Y49726240D02*
X89581194Y49726240D01*
X89866909Y49726240D02*
X89866909Y50726240D01*
X89771670Y50583382D01*
X89676432Y50488144D01*
X89581194Y50440525D01*
%TO.C,R7*%
X68410670Y19771954D02*
X67934480Y19438620D01*
X68410670Y19200525D02*
X67410670Y19200525D01*
X67410670Y19581478D01*
X67458290Y19676716D01*
X67505909Y19724335D01*
X67601147Y19771954D01*
X67744004Y19771954D01*
X67839242Y19724335D01*
X67886861Y19676716D01*
X67934480Y19581478D01*
X67934480Y19200525D01*
X67410670Y20105287D02*
X67410670Y20771954D01*
X68410670Y20343382D01*
%TO.C,R8*%
X64092670Y26514954D02*
X63616480Y26181620D01*
X64092670Y25943525D02*
X63092670Y25943525D01*
X63092670Y26324478D01*
X63140290Y26419716D01*
X63187909Y26467335D01*
X63283147Y26514954D01*
X63426004Y26514954D01*
X63521242Y26467335D01*
X63568861Y26419716D01*
X63616480Y26324478D01*
X63616480Y25943525D01*
X63521242Y27086382D02*
X63473623Y26991144D01*
X63426004Y26943525D01*
X63330766Y26895906D01*
X63283147Y26895906D01*
X63187909Y26943525D01*
X63140290Y26991144D01*
X63092670Y27086382D01*
X63092670Y27276859D01*
X63140290Y27372097D01*
X63187909Y27419716D01*
X63283147Y27467335D01*
X63330766Y27467335D01*
X63426004Y27419716D01*
X63473623Y27372097D01*
X63521242Y27276859D01*
X63521242Y27086382D01*
X63568861Y26991144D01*
X63616480Y26943525D01*
X63711718Y26895906D01*
X63902194Y26895906D01*
X63997432Y26943525D01*
X64045051Y26991144D01*
X64092670Y27086382D01*
X64092670Y27276859D01*
X64045051Y27372097D01*
X63997432Y27419716D01*
X63902194Y27467335D01*
X63711718Y27467335D01*
X63616480Y27419716D01*
X63568861Y27372097D01*
X63521242Y27276859D01*
%TO.C,C5*%
X47741432Y9992954D02*
X47789051Y9945335D01*
X47836670Y9802478D01*
X47836670Y9707240D01*
X47789051Y9564382D01*
X47693813Y9469144D01*
X47598575Y9421525D01*
X47408099Y9373906D01*
X47265242Y9373906D01*
X47074766Y9421525D01*
X46979528Y9469144D01*
X46884290Y9564382D01*
X46836670Y9707240D01*
X46836670Y9802478D01*
X46884290Y9945335D01*
X46931909Y9992954D01*
X46836670Y10897716D02*
X46836670Y10421525D01*
X47312861Y10373906D01*
X47265242Y10421525D01*
X47217623Y10516763D01*
X47217623Y10754859D01*
X47265242Y10850097D01*
X47312861Y10897716D01*
X47408099Y10945335D01*
X47646194Y10945335D01*
X47741432Y10897716D01*
X47789051Y10850097D01*
X47836670Y10754859D01*
X47836670Y10516763D01*
X47789051Y10421525D01*
X47741432Y10373906D01*
%TO.C,D4*%
X35347194Y9707240D02*
X35347194Y10707240D01*
X35585290Y10707240D01*
X35728147Y10659620D01*
X35823385Y10564382D01*
X35871004Y10469144D01*
X35918623Y10278668D01*
X35918623Y10135811D01*
X35871004Y9945335D01*
X35823385Y9850097D01*
X35728147Y9754859D01*
X35585290Y9707240D01*
X35347194Y9707240D01*
X36775766Y10373906D02*
X36775766Y9707240D01*
X36537670Y10754859D02*
X36299575Y10040573D01*
X36918623Y10040573D01*
%TO.C,J1*%
X9569956Y4047240D02*
X9569956Y3332954D01*
X9522337Y3190097D01*
X9427099Y3094859D01*
X9284242Y3047240D01*
X9189004Y3047240D01*
X10569956Y3047240D02*
X9998528Y3047240D01*
X10284242Y3047240D02*
X10284242Y4047240D01*
X10189004Y3904382D01*
X10093766Y3809144D01*
X9998528Y3761525D01*
%TO.C,J3*%
X25985956Y1976240D02*
X25985956Y1261954D01*
X25938337Y1119097D01*
X25843099Y1023859D01*
X25700242Y976240D01*
X25605004Y976240D01*
X26366909Y1976240D02*
X26985956Y1976240D01*
X26652623Y1595287D01*
X26795480Y1595287D01*
X26890718Y1547668D01*
X26938337Y1500049D01*
X26985956Y1404811D01*
X26985956Y1166716D01*
X26938337Y1071478D01*
X26890718Y1023859D01*
X26795480Y976240D01*
X26509766Y976240D01*
X26414528Y1023859D01*
X26366909Y1071478D01*
%TO.C,BT1*%
X5617575Y49571049D02*
X5760432Y49523430D01*
X5808051Y49475811D01*
X5855670Y49380573D01*
X5855670Y49237716D01*
X5808051Y49142478D01*
X5760432Y49094859D01*
X5665194Y49047240D01*
X5284242Y49047240D01*
X5284242Y50047240D01*
X5617575Y50047240D01*
X5712813Y49999620D01*
X5760432Y49952001D01*
X5808051Y49856763D01*
X5808051Y49761525D01*
X5760432Y49666287D01*
X5712813Y49618668D01*
X5617575Y49571049D01*
X5284242Y49571049D01*
X6141385Y50047240D02*
X6712813Y50047240D01*
X6427099Y49047240D02*
X6427099Y50047240D01*
X7569956Y49047240D02*
X6998528Y49047240D01*
X7284242Y49047240D02*
X7284242Y50047240D01*
X7189004Y49904382D01*
X7093766Y49809144D01*
X6998528Y49761525D01*
%TO.C,R4*%
X85555670Y37551954D02*
X85079480Y37218620D01*
X85555670Y36980525D02*
X84555670Y36980525D01*
X84555670Y37361478D01*
X84603290Y37456716D01*
X84650909Y37504335D01*
X84746147Y37551954D01*
X84889004Y37551954D01*
X84984242Y37504335D01*
X85031861Y37456716D01*
X85079480Y37361478D01*
X85079480Y36980525D01*
X84889004Y38409097D02*
X85555670Y38409097D01*
X84508051Y38171001D02*
X85222337Y37932906D01*
X85222337Y38551954D01*
%TO.C,J2*%
X80070956Y1436240D02*
X80070956Y721954D01*
X80023337Y579097D01*
X79928099Y483859D01*
X79785242Y436240D01*
X79690004Y436240D01*
X80499528Y1341001D02*
X80547147Y1388620D01*
X80642385Y1436240D01*
X80880480Y1436240D01*
X80975718Y1388620D01*
X81023337Y1341001D01*
X81070956Y1245763D01*
X81070956Y1150525D01*
X81023337Y1007668D01*
X80451909Y436240D01*
X81070956Y436240D01*
%TO.C,C4*%
X50392623Y26820478D02*
X50345004Y26772859D01*
X50202147Y26725240D01*
X50106909Y26725240D01*
X49964051Y26772859D01*
X49868813Y26868097D01*
X49821194Y26963335D01*
X49773575Y27153811D01*
X49773575Y27296668D01*
X49821194Y27487144D01*
X49868813Y27582382D01*
X49964051Y27677620D01*
X50106909Y27725240D01*
X50202147Y27725240D01*
X50345004Y27677620D01*
X50392623Y27630001D01*
X51249766Y27391906D02*
X51249766Y26725240D01*
X51011670Y27772859D02*
X50773575Y27058573D01*
X51392623Y27058573D01*
%TO.C,U6*%
X79007385Y26074240D02*
X79007385Y25264716D01*
X79055004Y25169478D01*
X79102623Y25121859D01*
X79197861Y25074240D01*
X79388337Y25074240D01*
X79483575Y25121859D01*
X79531194Y25169478D01*
X79578813Y25264716D01*
X79578813Y26074240D01*
X80483575Y26074240D02*
X80293099Y26074240D01*
X80197861Y26026620D01*
X80150242Y25979001D01*
X80055004Y25836144D01*
X80007385Y25645668D01*
X80007385Y25264716D01*
X80055004Y25169478D01*
X80102623Y25121859D01*
X80197861Y25074240D01*
X80388337Y25074240D01*
X80483575Y25121859D01*
X80531194Y25169478D01*
X80578813Y25264716D01*
X80578813Y25502811D01*
X80531194Y25598049D01*
X80483575Y25645668D01*
X80388337Y25693287D01*
X80197861Y25693287D01*
X80102623Y25645668D01*
X80055004Y25598049D01*
X80007385Y25502811D01*
%TO.C,D3*%
X35342484Y24820240D02*
X35342484Y25820240D01*
X35580580Y25820240D01*
X35723437Y25772620D01*
X35818675Y25677382D01*
X35866294Y25582144D01*
X35913913Y25391668D01*
X35913913Y25248811D01*
X35866294Y25058335D01*
X35818675Y24963097D01*
X35723437Y24867859D01*
X35580580Y24820240D01*
X35342484Y24820240D01*
X36247246Y25820240D02*
X36866294Y25820240D01*
X36532960Y25439287D01*
X36675818Y25439287D01*
X36771056Y25391668D01*
X36818675Y25344049D01*
X36866294Y25248811D01*
X36866294Y25010716D01*
X36818675Y24915478D01*
X36771056Y24867859D01*
X36675818Y24820240D01*
X36390103Y24820240D01*
X36294865Y24867859D01*
X36247246Y24915478D01*
%TO.C,C2*%
X14451623Y16025478D02*
X14404004Y15977859D01*
X14261147Y15930240D01*
X14165909Y15930240D01*
X14023051Y15977859D01*
X13927813Y16073097D01*
X13880194Y16168335D01*
X13832575Y16358811D01*
X13832575Y16501668D01*
X13880194Y16692144D01*
X13927813Y16787382D01*
X14023051Y16882620D01*
X14165909Y16930240D01*
X14261147Y16930240D01*
X14404004Y16882620D01*
X14451623Y16835001D01*
X14832575Y16835001D02*
X14880194Y16882620D01*
X14975432Y16930240D01*
X15213528Y16930240D01*
X15308766Y16882620D01*
X15356385Y16835001D01*
X15404004Y16739763D01*
X15404004Y16644525D01*
X15356385Y16501668D01*
X14784956Y15930240D01*
X15404004Y15930240D01*
%TO.C,R9*%
X55842670Y26585954D02*
X55366480Y26252620D01*
X55842670Y26014525D02*
X54842670Y26014525D01*
X54842670Y26395478D01*
X54890290Y26490716D01*
X54937909Y26538335D01*
X55033147Y26585954D01*
X55176004Y26585954D01*
X55271242Y26538335D01*
X55318861Y26490716D01*
X55366480Y26395478D01*
X55366480Y26014525D01*
X55842670Y27062144D02*
X55842670Y27252620D01*
X55795051Y27347859D01*
X55747432Y27395478D01*
X55604575Y27490716D01*
X55414099Y27538335D01*
X55033147Y27538335D01*
X54937909Y27490716D01*
X54890290Y27443097D01*
X54842670Y27347859D01*
X54842670Y27157382D01*
X54890290Y27062144D01*
X54937909Y27014525D01*
X55033147Y26966906D01*
X55271242Y26966906D01*
X55366480Y27014525D01*
X55414099Y27062144D01*
X55461718Y27157382D01*
X55461718Y27347859D01*
X55414099Y27443097D01*
X55366480Y27490716D01*
X55271242Y27538335D01*
%TO.C,R2*%
X15451670Y13675954D02*
X14975480Y13342620D01*
X15451670Y13104525D02*
X14451670Y13104525D01*
X14451670Y13485478D01*
X14499290Y13580716D01*
X14546909Y13628335D01*
X14642147Y13675954D01*
X14785004Y13675954D01*
X14880242Y13628335D01*
X14927861Y13580716D01*
X14975480Y13485478D01*
X14975480Y13104525D01*
X14546909Y14056906D02*
X14499290Y14104525D01*
X14451670Y14199763D01*
X14451670Y14437859D01*
X14499290Y14533097D01*
X14546909Y14580716D01*
X14642147Y14628335D01*
X14737385Y14628335D01*
X14880242Y14580716D01*
X15451670Y14009287D01*
X15451670Y14628335D01*
%TO.C,U3*%
X59628397Y27300240D02*
X59628397Y26490716D01*
X59676016Y26395478D01*
X59723635Y26347859D01*
X59818873Y26300240D01*
X60009349Y26300240D01*
X60104587Y26347859D01*
X60152206Y26395478D01*
X60199825Y26490716D01*
X60199825Y27300240D01*
X60580778Y27300240D02*
X61199825Y27300240D01*
X60866492Y26919287D01*
X61009349Y26919287D01*
X61104587Y26871668D01*
X61152206Y26824049D01*
X61199825Y26728811D01*
X61199825Y26490716D01*
X61152206Y26395478D01*
X61104587Y26347859D01*
X61009349Y26300240D01*
X60723635Y26300240D01*
X60628397Y26347859D01*
X60580778Y26395478D01*
%TO.C,R16*%
X31072670Y10024763D02*
X30596480Y9691430D01*
X31072670Y9453335D02*
X30072670Y9453335D01*
X30072670Y9834287D01*
X30120290Y9929525D01*
X30167909Y9977144D01*
X30263147Y10024763D01*
X30406004Y10024763D01*
X30501242Y9977144D01*
X30548861Y9929525D01*
X30596480Y9834287D01*
X30596480Y9453335D01*
X31072670Y10977144D02*
X31072670Y10405716D01*
X31072670Y10691430D02*
X30072670Y10691430D01*
X30215528Y10596192D01*
X30310766Y10500954D01*
X30358385Y10405716D01*
X30072670Y11834287D02*
X30072670Y11643811D01*
X30120290Y11548573D01*
X30167909Y11500954D01*
X30310766Y11405716D01*
X30501242Y11358097D01*
X30882194Y11358097D01*
X30977432Y11405716D01*
X31025051Y11453335D01*
X31072670Y11548573D01*
X31072670Y11739049D01*
X31025051Y11834287D01*
X30977432Y11881906D01*
X30882194Y11929525D01*
X30644099Y11929525D01*
X30548861Y11881906D01*
X30501242Y11834287D01*
X30453623Y11739049D01*
X30453623Y11548573D01*
X30501242Y11453335D01*
X30548861Y11405716D01*
X30644099Y11358097D01*
%TO.C,C1*%
X79983623Y14501478D02*
X79936004Y14453859D01*
X79793147Y14406240D01*
X79697909Y14406240D01*
X79555051Y14453859D01*
X79459813Y14549097D01*
X79412194Y14644335D01*
X79364575Y14834811D01*
X79364575Y14977668D01*
X79412194Y15168144D01*
X79459813Y15263382D01*
X79555051Y15358620D01*
X79697909Y15406240D01*
X79793147Y15406240D01*
X79936004Y15358620D01*
X79983623Y15311001D01*
X80936004Y14406240D02*
X80364575Y14406240D01*
X80650290Y14406240D02*
X80650290Y15406240D01*
X80555051Y15263382D01*
X80459813Y15168144D01*
X80364575Y15120525D01*
%TO.C,U2*%
X19317385Y16803240D02*
X19317385Y15993716D01*
X19365004Y15898478D01*
X19412623Y15850859D01*
X19507861Y15803240D01*
X19698337Y15803240D01*
X19793575Y15850859D01*
X19841194Y15898478D01*
X19888813Y15993716D01*
X19888813Y16803240D01*
X20317385Y16708001D02*
X20365004Y16755620D01*
X20460242Y16803240D01*
X20698337Y16803240D01*
X20793575Y16755620D01*
X20841194Y16708001D01*
X20888813Y16612763D01*
X20888813Y16517525D01*
X20841194Y16374668D01*
X20269766Y15803240D01*
X20888813Y15803240D01*
%TO.C,R14*%
X63521670Y9535763D02*
X63045480Y9202430D01*
X63521670Y8964335D02*
X62521670Y8964335D01*
X62521670Y9345287D01*
X62569290Y9440525D01*
X62616909Y9488144D01*
X62712147Y9535763D01*
X62855004Y9535763D01*
X62950242Y9488144D01*
X62997861Y9440525D01*
X63045480Y9345287D01*
X63045480Y8964335D01*
X63521670Y10488144D02*
X63521670Y9916716D01*
X63521670Y10202430D02*
X62521670Y10202430D01*
X62664528Y10107192D01*
X62759766Y10011954D01*
X62807385Y9916716D01*
X62855004Y11345287D02*
X63521670Y11345287D01*
X62474051Y11107192D02*
X63188337Y10869097D01*
X63188337Y11488144D01*
%TO.C,U4*%
X61862385Y14136240D02*
X61862385Y13326716D01*
X61910004Y13231478D01*
X61957623Y13183859D01*
X62052861Y13136240D01*
X62243337Y13136240D01*
X62338575Y13183859D01*
X62386194Y13231478D01*
X62433813Y13326716D01*
X62433813Y14136240D01*
X63338575Y13802906D02*
X63338575Y13136240D01*
X63100480Y14183859D02*
X62862385Y13469573D01*
X63481432Y13469573D01*
%TO.C,C6*%
X48741623Y12215478D02*
X48694004Y12167859D01*
X48551147Y12120240D01*
X48455909Y12120240D01*
X48313051Y12167859D01*
X48217813Y12263097D01*
X48170194Y12358335D01*
X48122575Y12548811D01*
X48122575Y12691668D01*
X48170194Y12882144D01*
X48217813Y12977382D01*
X48313051Y13072620D01*
X48455909Y13120240D01*
X48551147Y13120240D01*
X48694004Y13072620D01*
X48741623Y13025001D01*
X49598766Y13120240D02*
X49408290Y13120240D01*
X49313051Y13072620D01*
X49265432Y13025001D01*
X49170194Y12882144D01*
X49122575Y12691668D01*
X49122575Y12310716D01*
X49170194Y12215478D01*
X49217813Y12167859D01*
X49313051Y12120240D01*
X49503528Y12120240D01*
X49598766Y12167859D01*
X49646385Y12215478D01*
X49694004Y12310716D01*
X49694004Y12548811D01*
X49646385Y12644049D01*
X49598766Y12691668D01*
X49503528Y12739287D01*
X49313051Y12739287D01*
X49217813Y12691668D01*
X49170194Y12644049D01*
X49122575Y12548811D01*
%TO.C,C9*%
X15213623Y23137478D02*
X15166004Y23089859D01*
X15023147Y23042240D01*
X14927909Y23042240D01*
X14785051Y23089859D01*
X14689813Y23185097D01*
X14642194Y23280335D01*
X14594575Y23470811D01*
X14594575Y23613668D01*
X14642194Y23804144D01*
X14689813Y23899382D01*
X14785051Y23994620D01*
X14927909Y24042240D01*
X15023147Y24042240D01*
X15166004Y23994620D01*
X15213623Y23947001D01*
X15689813Y23042240D02*
X15880290Y23042240D01*
X15975528Y23089859D01*
X16023147Y23137478D01*
X16118385Y23280335D01*
X16166004Y23470811D01*
X16166004Y23851763D01*
X16118385Y23947001D01*
X16070766Y23994620D01*
X15975528Y24042240D01*
X15785051Y24042240D01*
X15689813Y23994620D01*
X15642194Y23947001D01*
X15594575Y23851763D01*
X15594575Y23613668D01*
X15642194Y23518430D01*
X15689813Y23470811D01*
X15785051Y23423192D01*
X15975528Y23423192D01*
X16070766Y23470811D01*
X16118385Y23518430D01*
X16166004Y23613668D01*
%TO.C,C8*%
X18515623Y23137478D02*
X18468004Y23089859D01*
X18325147Y23042240D01*
X18229909Y23042240D01*
X18087051Y23089859D01*
X17991813Y23185097D01*
X17944194Y23280335D01*
X17896575Y23470811D01*
X17896575Y23613668D01*
X17944194Y23804144D01*
X17991813Y23899382D01*
X18087051Y23994620D01*
X18229909Y24042240D01*
X18325147Y24042240D01*
X18468004Y23994620D01*
X18515623Y23947001D01*
X19087051Y23613668D02*
X18991813Y23661287D01*
X18944194Y23708906D01*
X18896575Y23804144D01*
X18896575Y23851763D01*
X18944194Y23947001D01*
X18991813Y23994620D01*
X19087051Y24042240D01*
X19277528Y24042240D01*
X19372766Y23994620D01*
X19420385Y23947001D01*
X19468004Y23851763D01*
X19468004Y23804144D01*
X19420385Y23708906D01*
X19372766Y23661287D01*
X19277528Y23613668D01*
X19087051Y23613668D01*
X18991813Y23566049D01*
X18944194Y23518430D01*
X18896575Y23423192D01*
X18896575Y23232716D01*
X18944194Y23137478D01*
X18991813Y23089859D01*
X19087051Y23042240D01*
X19277528Y23042240D01*
X19372766Y23089859D01*
X19420385Y23137478D01*
X19468004Y23232716D01*
X19468004Y23423192D01*
X19420385Y23518430D01*
X19372766Y23566049D01*
X19277528Y23613668D01*
%TO.C,D5*%
X87333670Y24915525D02*
X86333670Y24915525D01*
X86333670Y25153620D01*
X86381290Y25296478D01*
X86476528Y25391716D01*
X86571766Y25439335D01*
X86762242Y25486954D01*
X86905099Y25486954D01*
X87095575Y25439335D01*
X87190813Y25391716D01*
X87286051Y25296478D01*
X87333670Y25153620D01*
X87333670Y24915525D01*
X86333670Y26391716D02*
X86333670Y25915525D01*
X86809861Y25867906D01*
X86762242Y25915525D01*
X86714623Y26010763D01*
X86714623Y26248859D01*
X86762242Y26344097D01*
X86809861Y26391716D01*
X86905099Y26439335D01*
X87143194Y26439335D01*
X87238432Y26391716D01*
X87286051Y26344097D01*
X87333670Y26248859D01*
X87333670Y26010763D01*
X87286051Y25915525D01*
X87238432Y25867906D01*
D13*
%TO.C,R17*%
X32793790Y14079878D02*
X32793790Y13605362D01*
X31748790Y14079878D02*
X31748790Y13605362D01*
%TO.C,R12*%
X45226080Y19092498D02*
X45226080Y18617982D01*
X44181080Y19092498D02*
X44181080Y18617982D01*
%TO.C,C7*%
X59309290Y10038040D02*
X59309290Y10319200D01*
X60329290Y10038040D02*
X60329290Y10319200D01*
%TO.C,R13*%
X56796790Y10415878D02*
X56796790Y9941362D01*
X55751790Y10415878D02*
X55751790Y9941362D01*
D10*
%TO.C,Q1*%
X30965503Y15902407D02*
X29513077Y15902407D01*
X30965503Y17884018D02*
X30965503Y16973222D01*
X29513077Y15902407D02*
X29513077Y16934030D01*
X30965503Y18954833D02*
X29513077Y18954833D01*
X29513077Y18954833D02*
X29513077Y17923210D01*
D14*
X31469287Y15978607D02*
G75*
G03*
X31469287Y15978607I-29997J0D01*
G01*
D13*
%TO.C,R11*%
X46976080Y19092498D02*
X46976080Y18617982D01*
X45931080Y19092498D02*
X45931080Y18617982D01*
D15*
%TO.C,BZ1*%
X23000286Y19049868D02*
X23889288Y19049868D01*
X23508287Y18668867D02*
X23508287Y19430869D01*
X25909353Y21716620D02*
G75*
G03*
X25909353Y21716620I-750063J0D01*
G01*
D14*
X29694291Y17211997D02*
G75*
G03*
X29694291Y17211997I-29997J0D01*
G01*
D15*
X29759239Y21716620D02*
G75*
G03*
X29759239Y21716620I-4599949J0D01*
G01*
D13*
%TO.C,D2*%
X86146290Y27597620D02*
X87616290Y27597620D01*
X86146290Y29882620D02*
X86146290Y27597620D01*
X87616290Y27597620D02*
X87616290Y29882620D01*
%TO.C,R15*%
X85625790Y22876362D02*
X85625790Y23350878D01*
X84580790Y22876362D02*
X84580790Y23350878D01*
D15*
%TO.C,U1*%
X69218379Y14949582D02*
X69218379Y19049658D01*
X74318201Y19049658D02*
X74318201Y14949582D01*
X74318201Y14949582D02*
X69218125Y14949582D01*
X69218379Y19049658D02*
X74318455Y19049658D01*
D16*
X69251290Y14078620D02*
G75*
G03*
X69251290Y14078620I-150000J0D01*
G01*
D13*
%TO.C,R10*%
X39874548Y14238120D02*
X39400032Y14238120D01*
X39874548Y13193120D02*
X39400032Y13193120D01*
%TO.C,J4*%
X2253290Y24728620D02*
X3853290Y24728620D01*
X6213290Y25288620D02*
X7428290Y25288620D01*
X6213290Y8368620D02*
X6213290Y9288620D01*
X7813290Y26488620D02*
X-6710Y26488620D01*
X2253290Y9128620D02*
X2253290Y10128620D01*
X6213290Y25568620D02*
X7813290Y25568620D01*
X6213290Y26488620D02*
X6213290Y25568620D01*
X-6710Y8368620D02*
X7813290Y8368620D01*
X3853290Y24728620D02*
X3853290Y25728620D01*
X-6710Y23928620D02*
X4353290Y23928620D01*
X6213290Y9288620D02*
X6213290Y9568620D01*
X4353290Y23928620D02*
X4353290Y10928620D01*
X3853290Y9128620D02*
X2253290Y9128620D01*
X7813290Y25568620D02*
X7813290Y26488620D01*
X6213290Y25288620D02*
X6213290Y25568620D01*
X7813290Y8368620D02*
X7813290Y9288620D01*
X2253290Y25728620D02*
X2253290Y24728620D01*
X3853290Y10128620D02*
X3853290Y9128620D01*
X2253290Y25228620D02*
X-6710Y25228620D01*
X2253290Y10128620D02*
X3853290Y10128620D01*
X4353290Y10928620D02*
X-6710Y10928620D01*
X-6710Y26488620D02*
X-6710Y8368620D01*
X3853290Y25728620D02*
X2253290Y25728620D01*
X2253290Y24728620D02*
X-6710Y24728620D01*
X7813290Y9288620D02*
X6213290Y9288620D01*
D10*
%TO.C,U5*%
X43433503Y20317032D02*
X43433503Y17274208D01*
X38381077Y17274208D02*
X38381077Y20317032D01*
X38381077Y20317032D02*
X43433503Y20317032D01*
X43433503Y17274208D02*
X38381077Y17274208D01*
D16*
X39152400Y18026506D02*
G75*
G03*
X39152400Y18026506I-150114J0D01*
G01*
X38405779Y16023204D02*
G75*
G03*
X38405779Y16023204I-150000J0D01*
G01*
D15*
%TO.C,CN1*%
X88719000Y8958617D02*
X86856084Y8958617D01*
X92437390Y17898623D02*
X92437390Y8958617D01*
X92437390Y17898623D02*
X90955728Y17898623D01*
X92437390Y8958617D02*
X90956084Y8958617D01*
X88719356Y17898623D02*
X86855728Y17898623D01*
D14*
X84617172Y8952572D02*
G75*
G03*
X84617172Y8952572I-29998J0D01*
G01*
D13*
%TO.C,C3*%
X57650290Y24143200D02*
X57650290Y23862040D01*
X56630290Y24143200D02*
X56630290Y23862040D01*
%TO.C,R1*%
X17651790Y14079878D02*
X17651790Y13605362D01*
X18696790Y14079878D02*
X18696790Y13605362D01*
D15*
%TO.C,L1*%
X36419456Y16695658D02*
X37038277Y16695658D01*
X32838328Y16695658D02*
X32838303Y20895607D01*
X37038277Y16695633D02*
X37038277Y20895607D01*
X32838328Y16695658D02*
X33457175Y16695658D01*
X36419456Y20895607D02*
X37038277Y20895607D01*
X32838303Y20895607D02*
X33457175Y20895607D01*
D14*
X37195275Y15945747D02*
G75*
G03*
X37195275Y15945747I-29997J0D01*
G01*
D13*
%TO.C,R3*%
X84580790Y28845362D02*
X84580790Y29319878D01*
X85625790Y28845362D02*
X85625790Y29319878D01*
%TO.C,D1*%
X86146290Y35851620D02*
X86146290Y33566620D01*
X86146290Y33566620D02*
X87616290Y33566620D01*
X87616290Y33566620D02*
X87616290Y35851620D01*
D15*
%TO.C,SW1*%
X90852274Y39879115D02*
X89962891Y39879115D01*
X94853290Y42153309D02*
X94853290Y44228112D01*
X86453290Y48578125D02*
X87343917Y48578125D01*
X94853290Y44228112D02*
X90853290Y44228112D01*
X90853290Y42153309D02*
X94853290Y42153309D01*
X89962663Y48578125D02*
X90852274Y48578125D01*
X87343689Y39879115D02*
X86453290Y39879115D01*
X90852274Y48579141D02*
X90852274Y39879115D01*
X86453290Y39878099D02*
X86453290Y48578125D01*
D14*
X95010287Y39377998D02*
G75*
G03*
X95010287Y39377998I-29997J0D01*
G01*
D13*
%TO.C,R7*%
X67435790Y16780362D02*
X67435790Y17254878D01*
X68480790Y16780362D02*
X68480790Y17254878D01*
%TO.C,R8*%
X64162790Y23765362D02*
X64162790Y24239878D01*
X63117790Y23765362D02*
X63117790Y24239878D01*
%TO.C,C5*%
X45350290Y10300200D02*
X45350290Y10019040D01*
X46370290Y10300200D02*
X46370290Y10019040D01*
%TO.C,D4*%
X37507290Y8509620D02*
X42907290Y8509620D01*
X37507290Y11809620D02*
X37507290Y8509620D01*
X37507290Y11809620D02*
X42907290Y11809620D01*
%TO.C,J1*%
X21713290Y7909620D02*
X20793290Y7909620D01*
X20793290Y6309620D02*
X20513290Y6309620D01*
X20793290Y7909620D02*
X20793290Y6309620D01*
X14153290Y89620D02*
X14153290Y4449620D01*
X19953290Y2349620D02*
X19953290Y3949620D01*
X12793290Y6309620D02*
X12513290Y6309620D01*
X12353290Y3949620D02*
X12353290Y2349620D01*
X11593290Y89620D02*
X21713290Y89620D01*
X21713290Y6309620D02*
X20793290Y6309620D01*
X12513290Y7909620D02*
X11593290Y7909620D01*
X19953290Y3949620D02*
X20953290Y3949620D01*
X11593290Y6309620D02*
X12513290Y6309620D01*
X12793290Y6309620D02*
X12793290Y7524620D01*
X13353290Y3949620D02*
X12353290Y3949620D01*
X14153290Y4449620D02*
X19153290Y4449620D01*
X20953290Y3949620D02*
X20953290Y2349620D01*
X20953290Y2349620D02*
X19953290Y2349620D01*
X12513290Y6309620D02*
X12513290Y7909620D01*
X13353290Y2349620D02*
X13353290Y3949620D01*
X12353290Y2349620D02*
X13353290Y2349620D01*
X19153290Y4449620D02*
X19153290Y89620D01*
X21713290Y89620D02*
X21713290Y7909620D01*
X11593290Y7909620D02*
X11593290Y89620D01*
X13353290Y2349620D02*
X13353290Y89620D01*
X12853290Y2349620D02*
X12853290Y89620D01*
%TO.C,J3*%
X27430000Y4930000D02*
X25370000Y4930000D01*
X25370000Y4930000D02*
X25370000Y6990000D01*
X26430000Y2870000D02*
X25370000Y2870000D01*
X25370000Y2870000D02*
X25370000Y3930000D01*
X27430000Y2870000D02*
X65490000Y2870000D01*
X27430000Y2870000D02*
X27430000Y4930000D01*
X25370000Y6990000D02*
X65490000Y6990000D01*
X65490000Y2870000D02*
X65490000Y6990000D01*
%TO.C,BT1*%
X5153290Y48299620D02*
X83153290Y48299620D01*
X83153290Y48299620D02*
X83153290Y28199620D01*
X83153290Y28199620D02*
X5153290Y28199620D01*
X5153290Y28199620D02*
X5153290Y48299620D01*
%TO.C,R4*%
X84580790Y34814362D02*
X84580790Y35288878D01*
X85625790Y34814362D02*
X85625790Y35288878D01*
%TO.C,J2*%
X71653290Y139620D02*
X71653290Y4499620D01*
X70013290Y7959620D02*
X69093290Y7959620D01*
X69853290Y2399620D02*
X70853290Y2399620D01*
X79213290Y139620D02*
X79213290Y7959620D01*
X78453290Y3999620D02*
X78453290Y2399620D01*
X70293290Y6359620D02*
X70013290Y6359620D01*
X70853290Y2399620D02*
X70853290Y3999620D01*
X79213290Y6359620D02*
X78293290Y6359620D01*
X69093290Y139620D02*
X79213290Y139620D01*
X79213290Y7959620D02*
X78293290Y7959620D01*
X70853290Y3999620D02*
X69853290Y3999620D01*
X69853290Y3999620D02*
X69853290Y2399620D01*
X69093290Y6359620D02*
X70013290Y6359620D01*
X78453290Y2399620D02*
X77453290Y2399620D01*
X77453290Y3999620D02*
X78453290Y3999620D01*
X69093290Y7959620D02*
X69093290Y139620D01*
X78293290Y7959620D02*
X78293290Y6359620D01*
X70013290Y6359620D02*
X70013290Y7959620D01*
X70293290Y6359620D02*
X70293290Y7574620D01*
X70853290Y2399620D02*
X70853290Y139620D01*
X78293290Y6359620D02*
X78013290Y6359620D01*
X76653290Y4499620D02*
X76653290Y139620D01*
X77453290Y2399620D02*
X77453290Y3999620D01*
X70353290Y2399620D02*
X70353290Y139620D01*
X71653290Y4499620D02*
X76653290Y4499620D01*
D10*
%TO.C,C4*%
X48733103Y23452420D02*
X52385477Y23452420D01*
X48733103Y23452420D02*
X48733103Y23537383D01*
X51263608Y26404820D02*
X51263608Y23452420D01*
X48733103Y26404820D02*
X52385477Y26404820D01*
X48733103Y26404820D02*
X48733103Y26319857D01*
D14*
X52339300Y26328620D02*
G75*
G03*
X52339300Y26328620I-29997J0D01*
G01*
D15*
%TO.C,U6*%
X80469290Y22350628D02*
X80469290Y21486620D01*
X79069290Y23300590D02*
X79069290Y22672650D01*
X80469290Y21486620D02*
X79469265Y21486620D01*
X80469290Y24486620D02*
X80469290Y23622612D01*
X80469290Y24486620D02*
X79469265Y24486620D01*
D14*
X78599287Y24436607D02*
G75*
G03*
X78599287Y24436607I-29997J0D01*
G01*
D13*
%TO.C,D3*%
X44307290Y26922620D02*
X38907290Y26922620D01*
X44307290Y23622620D02*
X44307290Y26922620D01*
X44307290Y23622620D02*
X38907290Y23622620D01*
%TO.C,C2*%
X15128290Y18936200D02*
X15128290Y18655040D01*
X14108290Y18936200D02*
X14108290Y18655040D01*
%TO.C,R9*%
X54867790Y24239878D02*
X54867790Y23765362D01*
X55912790Y24239878D02*
X55912790Y23765362D01*
%TO.C,R2*%
X17045790Y14079878D02*
X17045790Y13605362D01*
X16000790Y14079878D02*
X16000790Y13605362D01*
D15*
%TO.C,U3*%
X59490290Y25552633D02*
X61290315Y25552633D01*
X59490290Y22452607D02*
X61290315Y22452607D01*
D14*
X61820313Y22567644D02*
G75*
G03*
X61820313Y22567644I-29998J0D01*
G01*
D15*
X61914293Y22351718D02*
G75*
G03*
X61914293Y22351718I-127000J0D01*
G01*
D13*
%TO.C,R16*%
X31142790Y14079878D02*
X31142790Y13605362D01*
X30097790Y14079878D02*
X30097790Y13605362D01*
D10*
%TO.C,C1*%
X81629490Y9673433D02*
X81629490Y13325807D01*
X78677090Y9673433D02*
X78762053Y9673433D01*
X78677090Y9673433D02*
X78677090Y13325807D01*
X81629490Y9673433D02*
X81544527Y9673433D01*
X78677090Y12203938D02*
X81629490Y12203938D01*
D14*
X78783287Y13249633D02*
G75*
G03*
X78783287Y13249633I-29997J0D01*
G01*
D17*
%TO.C,U2*%
X16066303Y19992496D02*
X16066303Y20398770D01*
X16466303Y17198770D02*
X16059978Y17198770D01*
X16066303Y20398770D02*
X16472526Y20398770D01*
X19266303Y17192470D02*
X18860105Y17192470D01*
X18866303Y20398770D02*
X19272602Y20398770D01*
X16059978Y17198770D02*
X16059978Y17604967D01*
X19266303Y17598770D02*
X19266303Y17192470D01*
X19272602Y20398770D02*
X19272602Y19992572D01*
D18*
X16868843Y17098770D02*
G75*
G03*
X16866303Y17098770I-1270J-134405D01*
G01*
D14*
X16196275Y17298770D02*
G75*
G03*
X16196275Y17298770I-29972J0D01*
G01*
D13*
%TO.C,R14*%
X57546790Y9941362D02*
X57546790Y10415878D01*
X58591790Y9941362D02*
X58591790Y10415878D01*
D15*
%TO.C,U4*%
X58890214Y14894416D02*
X58890214Y19161624D01*
X61853282Y19161624D02*
X58890366Y19161624D01*
X61890366Y14894416D02*
X61890366Y19161624D01*
X58890214Y14894416D02*
X61890366Y14894416D01*
D16*
X59524290Y15478620D02*
G75*
G03*
X59524290Y15478620I-150000J0D01*
G01*
X58889290Y13954620D02*
G75*
G03*
X58889290Y13954620I-150000J0D01*
G01*
D13*
%TO.C,C6*%
X48546290Y13518620D02*
X50896290Y13518620D01*
X49610727Y20338620D02*
X50896290Y20338620D01*
X48546290Y19274183D02*
X48546290Y13518620D01*
X49610727Y20338620D02*
X48546290Y19274183D01*
X54197540Y20972370D02*
X53410040Y20972370D01*
X53803790Y21366120D02*
X53803790Y20578620D01*
X54301853Y20338620D02*
X55366290Y19274183D01*
X55366290Y13518620D02*
X53016290Y13518620D01*
X54301853Y20338620D02*
X53016290Y20338620D01*
X55366290Y19274183D02*
X55366290Y13518620D01*
%TO.C,C9*%
X15239710Y21460620D02*
X15520870Y21460620D01*
X15239710Y22480620D02*
X15520870Y22480620D01*
%TO.C,C8*%
X18822870Y21460620D02*
X18541710Y21460620D01*
X18822870Y22480620D02*
X18541710Y22480620D01*
%TO.C,D5*%
X86146290Y21628620D02*
X87616290Y21628620D01*
X86146290Y23913620D02*
X86146290Y21628620D01*
X87616290Y21628620D02*
X87616290Y23913620D01*
%TD*%
%LPC*%
D19*
%TO.C,R17*%
X32271290Y14667620D03*
X32271290Y13017620D03*
%TD*%
%TO.C,R12*%
X44703580Y19680240D03*
X44703580Y18030240D03*
%TD*%
D20*
%TO.C,C7*%
X59819290Y9403620D03*
X59819290Y10953620D03*
%TD*%
D19*
%TO.C,R13*%
X56274290Y11003620D03*
X56274290Y9353620D03*
%TD*%
D21*
%TO.C,Q1*%
X31239290Y16478658D03*
X31239290Y18378582D03*
X29239290Y17428620D03*
%TD*%
D19*
%TO.C,R11*%
X46453580Y19680240D03*
X46453580Y18030240D03*
%TD*%
D22*
%TO.C,BZ1*%
X25159290Y19217001D03*
X25159290Y24217001D03*
%TD*%
D23*
%TO.C,D2*%
X86881290Y28295120D03*
X86881290Y29870120D03*
%TD*%
D24*
%TO.C,R15*%
X85103290Y22288620D03*
X85103290Y23938620D03*
%TD*%
D25*
%TO.C,U1*%
X69863286Y14091314D03*
X71133289Y14091314D03*
X72403291Y14091314D03*
X73673294Y14091314D03*
X73673294Y19907926D03*
X72403291Y19907926D03*
X71133289Y19907926D03*
X69863286Y19907926D03*
D26*
X71768290Y16999620D03*
%TD*%
D27*
%TO.C,R10*%
X40462290Y13715620D03*
X38812290Y13715620D03*
%TD*%
D28*
%TO.C,J4*%
X6353290Y24428620D03*
D29*
X6353290Y22428620D03*
X6353290Y20428620D03*
X6353290Y18428620D03*
X6353290Y16428620D03*
X6353290Y14428620D03*
X6353290Y12428620D03*
X6353290Y10428620D03*
%TD*%
D30*
%TO.C,U5*%
X39002286Y16023204D03*
X40272289Y16023204D03*
X41542291Y16023204D03*
X42812294Y16023204D03*
X42812294Y21568036D03*
X41542291Y21568036D03*
X40272289Y21568036D03*
X39002286Y21568036D03*
D31*
X40907290Y18795620D03*
%TD*%
D32*
%TO.C,CN1*%
X86137669Y16327528D03*
X86137669Y10527680D03*
D33*
X85637542Y9102483D03*
X85637542Y17752725D03*
D34*
X89837440Y17752725D03*
X89837440Y9102483D03*
D35*
X84869190Y10077591D03*
X84869190Y10877693D03*
X84869190Y12177667D03*
X84869190Y13177667D03*
X84869190Y13677540D03*
X84869190Y14677286D03*
X84869190Y15977769D03*
X84869190Y16777617D03*
X84869190Y16477642D03*
X84869190Y15677540D03*
X84869190Y15177667D03*
X84869190Y14177667D03*
X84869190Y12677540D03*
X84869190Y11677540D03*
X84869190Y11177667D03*
X84869190Y10377566D03*
%TD*%
D36*
%TO.C,C3*%
X57140290Y24777620D03*
X57140290Y23227620D03*
%TD*%
D37*
%TO.C,H4*%
X3569290Y3428620D03*
%TD*%
D38*
%TO.C,REF\u002A\u002A*%
X84069290Y49928620D03*
%TD*%
%TO.C,REF\u002A\u002A*%
X9319290Y6428620D03*
%TD*%
D19*
%TO.C,R1*%
X18174290Y14667620D03*
X18174290Y13017620D03*
%TD*%
D39*
%TO.C,L1*%
X34938303Y16945747D03*
X34938303Y20645518D03*
%TD*%
D24*
%TO.C,R3*%
X85103290Y28257620D03*
X85103290Y29907620D03*
%TD*%
D23*
%TO.C,D1*%
X86881290Y34264120D03*
X86881290Y35839120D03*
%TD*%
D40*
%TO.C,SW1*%
X88653290Y42228112D03*
X88653290Y44228112D03*
X88653290Y46228112D03*
D41*
X88653290Y48378226D03*
X88653290Y40077998D03*
%TD*%
D24*
%TO.C,R7*%
X67958290Y16192620D03*
X67958290Y17842620D03*
%TD*%
%TO.C,R8*%
X63640290Y23177620D03*
X63640290Y24827620D03*
%TD*%
D36*
%TO.C,C5*%
X45860290Y10934620D03*
X45860290Y9384620D03*
%TD*%
D42*
%TO.C,D4*%
X38907290Y10159620D03*
X42907290Y10159620D03*
%TD*%
D43*
%TO.C,J1*%
X13653290Y6449620D03*
D44*
X15653290Y6449620D03*
X17653290Y6449620D03*
X19653290Y6449620D03*
%TD*%
D45*
%TO.C,J3*%
X26430000Y3930000D03*
D46*
X26430000Y5930000D03*
X28430000Y3930000D03*
X28430000Y5930000D03*
X30430000Y3930000D03*
X30430000Y5930000D03*
X32430000Y3930000D03*
X32430000Y5930000D03*
X34430000Y3930000D03*
X34430000Y5930000D03*
X36430000Y3930000D03*
X36430000Y5930000D03*
X38430000Y3930000D03*
X38430000Y5930000D03*
X40430000Y3930000D03*
X40430000Y5930000D03*
X42430000Y3930000D03*
X42430000Y5930000D03*
X44430000Y3930000D03*
X44430000Y5930000D03*
X46430000Y3930000D03*
X46430000Y5930000D03*
X48430000Y3930000D03*
X48430000Y5930000D03*
X50430000Y3930000D03*
X50430000Y5930000D03*
X52430000Y3930000D03*
X52430000Y5930000D03*
X54430000Y3930000D03*
X54430000Y5930000D03*
X56430000Y3930000D03*
X56430000Y5930000D03*
X58430000Y3930000D03*
X58430000Y5930000D03*
X60430000Y3930000D03*
X60430000Y5930000D03*
X62430000Y3930000D03*
X62430000Y5930000D03*
X64430000Y3930000D03*
X64430000Y5930000D03*
%TD*%
D37*
%TO.C,BT1*%
X15898290Y38249620D03*
X71508290Y38249620D03*
D47*
X80153290Y38249620D03*
D48*
X8153290Y38249620D03*
%TD*%
D24*
%TO.C,R4*%
X85103290Y34226620D03*
X85103290Y35876620D03*
%TD*%
D37*
%TO.C,H3*%
X87389290Y54228620D03*
%TD*%
D43*
%TO.C,J2*%
X71153290Y6499620D03*
D44*
X73153290Y6499620D03*
X75153290Y6499620D03*
X77153290Y6499620D03*
%TD*%
D49*
%TO.C,C4*%
X52363176Y24928620D03*
X48755404Y24928620D03*
%TD*%
D50*
%TO.C,U6*%
X78619277Y23936633D03*
X78619277Y22036607D03*
X80919303Y22986569D03*
%TD*%
D42*
%TO.C,D3*%
X42907290Y25272620D03*
X38907290Y25272620D03*
%TD*%
D37*
%TO.C,H1*%
X87389290Y3428620D03*
%TD*%
%TO.C,H2*%
X3569290Y54228620D03*
%TD*%
D36*
%TO.C,C2*%
X14618290Y19570620D03*
X14618290Y18020620D03*
%TD*%
D19*
%TO.C,R9*%
X55390290Y24827620D03*
X55390290Y23177620D03*
%TD*%
%TO.C,R2*%
X16523290Y14667620D03*
X16523290Y13017620D03*
%TD*%
D51*
%TO.C,U3*%
X61790341Y23052760D03*
X61790341Y24002722D03*
X61790341Y24952684D03*
X58990239Y24952684D03*
X58990239Y24002722D03*
X58990239Y23052760D03*
%TD*%
D19*
%TO.C,R16*%
X30620290Y14667620D03*
X30620290Y13017620D03*
%TD*%
D52*
%TO.C,C1*%
X80153290Y13303506D03*
X80153290Y9695734D03*
%TD*%
D53*
%TO.C,U2*%
X16916366Y17535752D03*
X17416493Y17535752D03*
X17916366Y17535752D03*
X18416493Y17535752D03*
D54*
X18929320Y18048833D03*
X18929320Y18548960D03*
X18929320Y19048833D03*
X18929320Y19548960D03*
D53*
X18416239Y20061787D03*
X17916112Y20061787D03*
X17416239Y20061787D03*
X16916112Y20061787D03*
D54*
X16403285Y19548706D03*
X16403285Y19048579D03*
X16403285Y18548706D03*
X16403285Y18048579D03*
%TD*%
D24*
%TO.C,R14*%
X58069290Y9353620D03*
X58069290Y11003620D03*
%TD*%
D55*
%TO.C,U4*%
X59415131Y13802214D03*
X60065373Y13802214D03*
X60715614Y13802214D03*
X61365855Y13802214D03*
X61365855Y20203026D03*
X60715614Y20203026D03*
X60065373Y20203026D03*
X59415131Y20203026D03*
%TD*%
D56*
%TO.C,C6*%
X51956290Y19628620D03*
X51956290Y14228620D03*
%TD*%
D57*
%TO.C,C9*%
X14605290Y21970620D03*
X16155290Y21970620D03*
%TD*%
D58*
%TO.C,C8*%
X19457290Y21970620D03*
X17907290Y21970620D03*
%TD*%
D23*
%TO.C,D5*%
X86881290Y22326120D03*
X86881290Y23901120D03*
%TD*%
M02*
