M48
; DRILL file {KiCad (6.0.10)} date Fri Mar  3 00:05:23 2023
; FORMAT={-:-/ absolute / inch / decimal}
; #@! TF.CreationDate,2023-03-03T00:05:23+07:00
; #@! TF.GenerationSoftware,Kicad,Pcbnew,(6.0.10)
; #@! TF.FileFunction,Plated,1,2,PTH
FMAT,2
INCH
; #@! TA.AperFunction,Plated,PTH,ViaDrill
T1C0.0118
; #@! TA.AperFunction,Plated,PTH,ViaDrill
T2C0.0157
; #@! TA.AperFunction,Plated,PTH,ComponentDrill
T3C0.0295
; #@! TA.AperFunction,Plated,PTH,ComponentDrill
T4C0.0315
; #@! TA.AperFunction,Plated,PTH,ComponentDrill
T5C0.0360
; #@! TA.AperFunction,Plated,PTH,ComponentDrill
T6C0.0394
; #@! TA.AperFunction,Plated,PTH,ComponentDrill
T7C0.0787
%
G90
G05
T1
X4.0714Y-2.7152
X4.0714Y-2.7652
X4.0714Y-2.8152
X4.0714Y-2.8652
X4.0714Y-2.9152
X4.0714Y-2.9652
X4.0714Y-3.0152
X4.0714Y-3.0652
X4.0714Y-3.1152
X4.0714Y-3.1652
X4.0714Y-3.2152
X4.0714Y-3.2652
X4.0714Y-3.3152
X4.0714Y-3.3652
X4.0714Y-3.4152
X4.0714Y-3.4652
X4.0714Y-3.5152
X4.1214Y-2.7152
X4.1214Y-2.7652
X4.1214Y-2.8152
X4.1214Y-2.8652
X4.1214Y-2.9152
X4.1214Y-2.9652
X4.1214Y-3.0152
X4.1214Y-3.0652
X4.1214Y-3.1152
X4.1214Y-3.1652
X4.1214Y-3.2152
X4.1214Y-3.2652
X4.1214Y-3.3152
X4.1214Y-3.3652
X4.1214Y-3.4152
X4.1214Y-3.4652
X4.1214Y-3.5152
X4.1764Y-3.7902
X4.3214Y-2.4652
X4.3214Y-2.5152
X4.3714Y-2.4652
X4.3714Y-2.5152
X4.4214Y-2.4652
X4.4214Y-2.5152
X4.4714Y-2.4652
X4.4714Y-2.5152
X4.5064Y-3.7602
X4.5214Y-2.4652
X4.5214Y-2.5152
X4.5264Y-3.8102
X4.5714Y-2.4652
X4.5714Y-2.5152
X4.6164Y-3.9652
X4.6214Y-2.4652
X4.6214Y-2.5152
X4.6214Y-4.4802
X4.6428Y-4.0534
X4.6464Y-4.0152
X4.6527Y-4.2109
X4.6714Y-2.4652
X4.6714Y-2.5152
X4.7164Y-3.9252
X4.7214Y-2.4652
X4.7214Y-2.5152
X4.7314Y-4.2109
X4.7714Y-2.4652
X4.7714Y-2.5152
X4.8214Y-2.4652
X4.8214Y-2.5152
X4.846Y-4.1902
X4.8464Y-4.0902
X4.8464Y-4.1402
X4.8714Y-2.4652
X4.8714Y-2.5152
X4.896Y-4.1902
X4.8964Y-4.0902
X4.8964Y-4.1402
X4.9214Y-2.4652
X4.9214Y-2.5152
X4.946Y-4.1902
X4.9464Y-4.0902
X4.9464Y-4.1402
X4.9714Y-2.4652
X4.9714Y-2.5152
X4.996Y-4.1902
X4.9964Y-4.0902
X4.9964Y-4.1402
X5.0214Y-2.4652
X5.0214Y-2.5152
X5.046Y-4.1902
X5.0464Y-4.0902
X5.0464Y-4.1402
X5.0714Y-2.4652
X5.0714Y-2.5152
X5.096Y-4.1902
X5.0964Y-4.0902
X5.0964Y-4.1402
X5.1214Y-2.4652
X5.1214Y-2.5152
X5.1414Y-4.0302
X5.1714Y-2.4652
X5.1714Y-2.5152
X5.2214Y-2.4652
X5.2214Y-2.5152
X5.2714Y-2.4652
X5.2714Y-2.5152
X5.2964Y-4.2052
X5.3214Y-2.4652
X5.3214Y-2.5152
X5.3264Y-3.6602
X5.3264Y-3.7002
X5.3264Y-3.7402
X5.3264Y-3.7802
X5.3564Y-4.1902
X5.3664Y-3.6602
X5.3664Y-3.7002
X5.3664Y-3.7402
X5.3664Y-3.7802
X5.3714Y-2.4652
X5.3714Y-2.5152
X5.4064Y-3.7402
X5.4064Y-3.7802
X5.4214Y-2.4652
X5.4214Y-2.5152
X5.4464Y-3.7402
X5.4714Y-2.4652
X5.4714Y-2.5152
X5.5214Y-2.4652
X5.5214Y-2.5152
X5.5714Y-2.4652
X5.5714Y-2.5152
X5.6214Y-2.4652
X5.6214Y-2.5152
X5.6714Y-2.4652
X5.6714Y-2.5152
X5.7214Y-2.4652
X5.7214Y-2.5152
X5.7714Y-2.4652
X5.7714Y-2.5152
X5.8214Y-2.4652
X5.8214Y-2.5152
X5.8714Y-2.4652
X5.8714Y-2.5152
X5.9214Y-4.2152
X5.9214Y-4.2652
X5.9214Y-4.3152
X5.9714Y-4.2152
X5.9714Y-4.2652
X5.9714Y-4.3152
X6.0214Y-4.2152
X6.0214Y-4.2652
X6.0214Y-4.3152
X6.0714Y-4.2152
X6.0714Y-4.2652
X6.0714Y-4.3152
X6.1214Y-4.2152
X6.1214Y-4.2652
X6.1214Y-4.3152
X6.1714Y-4.2152
X6.1714Y-4.2652
X6.1714Y-4.3152
X6.1964Y-4.3552
X6.5164Y-3.8648
X6.5164Y-3.9148
X6.5164Y-3.9648
X6.5164Y-4.0148
X6.5164Y-4.0648
X6.5164Y-4.1148
X6.5664Y-3.8652
X6.5664Y-3.9152
X6.5664Y-3.9652
X6.5664Y-4.0152
X6.5664Y-4.0652
X6.5664Y-4.1152
X6.6164Y-3.8652
X6.6164Y-3.9152
X6.6164Y-3.9652
X6.6164Y-4.0152
X6.6164Y-4.0652
X6.6164Y-4.1152
X6.7564Y-3.8202
X6.7964Y-2.4652
X6.7964Y-2.5152
X6.8464Y-2.4652
X6.8464Y-2.5152
X6.8964Y-2.4652
X6.8964Y-2.5152
X6.9464Y-2.4652
X6.9464Y-2.5152
X6.9864Y-3.5352
X6.9964Y-2.4652
X6.9964Y-2.5152
X6.9964Y-3.9398
X6.9964Y-3.9898
X6.9964Y-4.0398
X6.9964Y-4.0898
X7.0464Y-2.4652
X7.0464Y-2.5152
X7.0464Y-3.9402
X7.0464Y-3.9902
X7.0464Y-4.0402
X7.0464Y-4.0902
X7.0469Y-3.8914
X7.0514Y-3.7302
X7.0964Y-2.4652
X7.0964Y-2.5152
X7.0964Y-3.9402
X7.0964Y-3.9902
X7.0964Y-4.0402
X7.0964Y-4.0902
X7.1464Y-2.4652
X7.1464Y-2.5152
X7.1464Y-3.9402
X7.1464Y-3.9902
X7.1964Y-2.4652
X7.1964Y-2.5152
X7.1964Y-3.9407
X7.1964Y-3.9907
X7.2214Y-4.4652
X7.2214Y-4.5152
X7.2214Y-4.5652
X7.2214Y-4.6152
X7.2464Y-2.4652
X7.2464Y-2.5152
X7.2464Y-3.9407
X7.2464Y-3.9907
X7.2464Y-4.0902
X7.2464Y-4.1402
X7.2464Y-4.1902
X7.2714Y-4.4652
X7.2714Y-4.5152
X7.2714Y-4.5652
X7.2714Y-4.6152
X7.2964Y-2.4652
X7.2964Y-2.5152
X7.2964Y-4.0902
X7.2964Y-4.1402
X7.2964Y-4.1902
X7.3014Y-3.2652
X7.4264Y-3.8452
T2
X4.9464Y-4.4152
X4.9464Y-4.4652
X5.2814Y-3.9902
X5.2814Y-4.3402
X5.392Y-4.1011
X5.4878Y-3.8861
X5.4878Y-3.9361
X5.4878Y-3.9861
X5.5364Y-3.9874
X5.5378Y-3.8861
X5.5378Y-3.9361
X5.6864Y-4.1002
X5.8464Y-3.6852
X5.9907Y-3.3852
X6.2797Y-3.8701
X6.3835Y-4.0058
X6.904Y-4.1619
X6.9714Y-3.8102
X7.0895Y-3.8914
X7.1345Y-3.8914
X7.1845Y-3.8914
X7.2764Y-3.6452
X7.3289Y-3.937
T3
X4.256Y-3.7134
X4.256Y-3.7922
X4.256Y-3.8709
X4.256Y-3.9497
X4.256Y-4.0284
X4.256Y-4.1071
X4.256Y-4.1859
X4.256Y-4.2646
X4.5434Y-4.4213
X4.6222Y-4.4213
X4.7009Y-4.4213
X4.7797Y-4.4213
X6.8072Y-4.4193
X6.886Y-4.4193
X6.9647Y-4.4193
X7.0434Y-4.4193
T4
X5.0465Y-4.4417
X5.0465Y-4.5205
X5.1252Y-4.4417
X5.1252Y-4.5205
X5.2039Y-4.4417
X5.2039Y-4.5205
X5.2827Y-4.4417
X5.2827Y-4.5205
X5.3614Y-4.4417
X5.3614Y-4.5205
X5.4402Y-4.4417
X5.4402Y-4.5205
X5.5189Y-4.4417
X5.5189Y-4.5205
X5.5976Y-4.4417
X5.5976Y-4.5205
X5.6764Y-4.4417
X5.6764Y-4.5205
X5.7551Y-4.4417
X5.7551Y-4.5205
X5.8339Y-4.4417
X5.8339Y-4.5205
X5.9126Y-4.4417
X5.9126Y-4.5205
X5.9913Y-4.4417
X5.9913Y-4.5205
X6.0701Y-4.4417
X6.0701Y-4.5205
X6.1488Y-4.4417
X6.1488Y-4.5205
X6.2276Y-4.4417
X6.2276Y-4.5205
X6.3063Y-4.4417
X6.3063Y-4.5205
X6.385Y-4.4417
X6.385Y-4.5205
X6.4638Y-4.4417
X6.4638Y-4.5205
X6.5425Y-4.4417
X6.5425Y-4.5205
T5
X7.4962Y-2.8552
X7.4962Y-2.9339
X7.4962Y-3.0127
T6
X4.9964Y-3.7218
X4.9964Y-3.9186
T7
X4.3269Y-3.1693
X7.1615Y-3.1693
T4
G00X7.3617Y-3.9763
M15
G01X7.3932Y-3.9763
M16
G05
G00X7.3617Y-4.3168
M15
G01X7.3932Y-4.3168
M16
G05
G00X7.4804Y-2.7705
M15
G01X7.5119Y-2.7705
M16
G05
G00X7.4804Y-3.0973
M15
G01X7.5119Y-3.0973
M16
G05
G00X7.531Y-3.9763
M15
G01X7.5546Y-3.9763
M16
G05
G00X7.531Y-4.3168
M15
G01X7.5546Y-4.3168
M16
G05
T0
M30
